<?xml version="1.0" encoding="utf-8" standalone="no"?>
<!DOCTYPE svg PUBLIC "-//W3C//DTD SVG 1.1//EN"
  "http://www.w3.org/Graphics/SVG/1.1/DTD/svg11.dtd">
<!-- Created with matplotlib (http://matplotlib.org/) -->
<svg height="324pt" version="1.1" viewBox="0 0 495 324" width="495pt" xmlns="http://www.w3.org/2000/svg" xmlns:xlink="http://www.w3.org/1999/xlink">
 <defs>
  <style type="text/css">
*{stroke-linecap:butt;stroke-linejoin:round;stroke-miterlimit:100000;}
  </style>
 </defs>
 <g id="figure_1">
  <g id="patch_1">
   <path d="M 0 324.811002 
L 495.203125 324.811002 
L 495.203125 0 
L 0 0 
z
" style="fill:#ffffff;"/>
  </g>
  <g id="axes_1">
   <g id="patch_2">
    <path d="M 41.603125 286.254752 
L 488.003125 286.254752 
L 488.003125 7.254752 
L 41.603125 7.254752 
z
" style="fill:#ffffff;"/>
   </g>
   <g id="PathCollection_1">
    <path clip-path="url(#p01317cf840)" d="M 67.16967 185.519297 
C 69.634776 185.519297 71.999248 184.5399 73.742341 182.796807 
C 75.485434 181.053715 76.46483 178.689242 76.46483 176.224137 
C 76.46483 173.759031 75.485434 171.394558 73.742341 169.651466 
C 71.999248 167.908373 69.634776 166.928976 67.16967 166.928976 
C 64.704565 166.928976 62.340092 167.908373 60.596999 169.651466 
C 58.853907 171.394558 57.87451 173.759031 57.87451 176.224137 
C 57.87451 178.689242 58.853907 181.053715 60.596999 182.796807 
C 62.340092 184.5399 64.704565 185.519297 67.16967 185.519297 
z
" style="fill:#de2d26;stroke:#ffffff;stroke-width:2.0;"/>
    <path clip-path="url(#p01317cf840)" d="M 157.768578 52.952271 
C 161.864227 52.952271 165.792681 51.325052 168.688743 48.42899 
C 171.584804 45.532929 173.212023 41.604475 173.212023 37.508825 
C 173.212023 33.413176 171.584804 29.484722 168.688743 26.588661 
C 165.792681 23.692599 161.864227 22.06538 157.768578 22.06538 
C 153.672928 22.06538 149.744474 23.692599 146.848413 26.588661 
C 143.952351 29.484722 142.325132 33.413176 142.325132 37.508825 
C 142.325132 41.604475 143.952351 45.532929 146.848413 48.42899 
C 149.744474 51.325052 153.672928 52.952271 157.768578 52.952271 
z
" style="fill:#6baed6;stroke:#ffffff;stroke-width:2.0;"/>
    <path clip-path="url(#p01317cf840)" d="M 228.685312 41.588339 
C 233.397427 41.588339 237.917181 39.716196 241.249149 36.384228 
C 244.581118 33.052259 246.453261 28.532506 246.453261 23.820391 
C 246.453261 19.108276 244.581118 14.588522 241.249149 11.256554 
C 237.917181 7.924585 233.397427 6.052442 228.685312 6.052442 
C 223.973197 6.052442 219.453444 7.924585 216.121475 11.256554 
C 212.789507 14.588522 210.917364 19.108276 210.917364 23.820391 
C 210.917364 28.532506 212.789507 33.052259 216.121475 36.384228 
C 219.453444 39.716196 223.973197 41.588339 228.685312 41.588339 
z
" style="fill:#c6dbef;stroke:#ffffff;stroke-width:2.0;"/>
    <path clip-path="url(#p01317cf840)" d="M 54.792215 253.315893 
C 61.317505 253.315893 67.576415 250.723368 72.190491 246.109292 
C 76.804568 241.495215 79.397093 235.236305 79.397093 228.711016 
C 79.397093 222.185726 76.804568 215.926816 72.190491 211.31274 
C 67.576415 206.698663 61.317505 204.106138 54.792215 204.106138 
C 48.266926 204.106138 42.008016 206.698663 37.39394 211.31274 
C 32.779863 215.926816 30.187338 222.185726 30.187338 228.711016 
C 30.187338 235.236305 32.779863 241.495215 37.39394 246.109292 
C 42.008016 250.723368 48.266926 253.315893 54.792215 253.315893 
z
" style="fill:#fecc5c;stroke:#ffffff;stroke-width:2.0;"/>
    <path clip-path="url(#p01317cf840)" d="M 64.531852 270.753414 
C 71.080275 270.753414 77.361373 268.151698 81.991807 263.521264 
C 86.622241 258.89083 89.223956 252.609732 89.223956 246.061309 
C 89.223956 239.512887 86.622241 233.231789 81.991807 228.601355 
C 77.361373 223.970921 71.080275 221.369205 64.531852 221.369205 
C 57.98343 221.369205 51.702332 223.970921 47.071898 228.601355 
C 42.441464 233.231789 39.839748 239.512887 39.839748 246.061309 
C 39.839748 252.609732 42.441464 258.89083 47.071898 263.521264 
C 51.702332 268.151698 57.98343 270.753414 64.531852 270.753414 
z
" style="fill:#fd8d3c;stroke:#ffffff;stroke-width:2.0;"/>
    <path clip-path="url(#p01317cf840)" d="M 355.807845 143.670878 
C 365.672545 143.670878 375.13454 139.751591 382.109937 132.776195 
C 389.085333 125.800798 393.004619 116.338803 393.004619 106.474103 
C 393.004619 96.609404 389.085333 87.147408 382.109937 80.172012 
C 375.13454 73.196616 365.672545 69.277329 355.807845 69.277329 
C 345.943145 69.277329 336.48115 73.196616 329.505754 80.172012 
C 322.530358 87.147408 318.611071 96.609404 318.611071 106.474103 
C 318.611071 116.338803 322.530358 125.800798 329.505754 132.776195 
C 336.48115 139.751591 345.943145 143.670878 355.807845 143.670878 
z
" style="fill:#006d2c;stroke:#ffffff;stroke-width:2.0;"/>
    <path clip-path="url(#p01317cf840)" d="M 440.218043 143.331721 
C 450.270255 143.331721 459.912108 139.337935 467.020095 132.229948 
C 474.128083 125.121961 478.121869 115.480108 478.121869 105.427896 
C 478.121869 95.375684 474.128083 85.733831 467.020095 78.625844 
C 459.912108 71.517857 450.270255 67.524071 440.218043 67.524071 
C 430.165831 67.524071 420.523979 71.517857 413.415991 78.625844 
C 406.308004 85.733831 402.314218 95.375684 402.314218 105.427896 
C 402.314218 115.480108 406.308004 125.121961 413.415991 132.229948 
C 420.523979 139.337935 430.165831 143.331721 440.218043 143.331721 
z
" style="fill:#74c476;stroke:#ffffff;stroke-width:2.0;"/>
    <path clip-path="url(#p01317cf840)" d="M 78.431126 126.440848 
C 81.29851 126.440848 84.048839 125.301624 86.076386 123.274077 
C 88.103933 121.246531 89.243156 118.496201 89.243156 115.628817 
C 89.243156 112.761434 88.103933 110.011104 86.076386 107.983558 
C 84.048839 105.956011 81.29851 104.816787 78.431126 104.816787 
C 75.563742 104.816787 72.813413 105.956011 70.785866 107.983558 
C 68.75832 110.011104 67.619096 112.761434 67.619096 115.628817 
C 67.619096 118.496201 68.75832 121.246531 70.785866 123.274077 
C 72.813413 125.301624 75.563742 126.440848 78.431126 126.440848 
z
" style="fill:#7a0177;stroke:#ffffff;stroke-width:2.0;"/>
    <path clip-path="url(#p01317cf840)" d="M 116.070763 98.134292 
C 119.98644 98.134292 123.742268 96.578577 126.511069 93.809775 
C 129.279871 91.040974 130.835586 87.285146 130.835586 83.369469 
C 130.835586 79.453792 129.279871 75.697964 126.511069 72.929163 
C 123.742268 70.160361 119.98644 68.604646 116.070763 68.604646 
C 112.155086 68.604646 108.399258 70.160361 105.630457 72.929163 
C 102.861655 75.697964 101.30594 79.453792 101.30594 83.369469 
C 101.30594 87.285146 102.861655 91.040974 105.630457 93.809775 
C 108.399258 96.578577 112.155086 98.134292 116.070763 98.134292 
z
" style="fill:#c51b8a;stroke:#ffffff;stroke-width:2.0;"/>
    <path clip-path="url(#p01317cf840)" d="M 124.897307 75.641953 
C 129.13724 75.641953 133.204088 73.95741 136.202173 70.959325 
C 139.200259 67.961239 140.884802 63.894392 140.884802 59.654458 
C 140.884802 55.414525 139.200259 51.347678 136.202173 48.349592 
C 133.204088 45.351507 129.13724 43.666964 124.897307 43.666964 
C 120.657374 43.666964 116.590527 45.351507 113.592441 48.349592 
C 110.594356 51.347678 108.909812 55.414525 108.909812 59.654458 
C 108.909812 63.894392 110.594356 67.961239 113.592441 70.959325 
C 116.590527 73.95741 120.657374 75.641953 124.897307 75.641953 
z
" style="fill:#f768a1;stroke:#ffffff;stroke-width:2.0;"/>
    <path clip-path="url(#p01317cf840)" d="M 200.379485 67.084735 
C 205.980233 67.084735 211.352342 64.859535 215.312669 60.899208 
C 219.272996 56.938881 221.498196 51.566771 221.498196 45.966024 
C 221.498196 40.365276 219.272996 34.993166 215.312669 31.032839 
C 211.352342 27.072513 205.980233 24.847312 200.379485 24.847312 
C 194.778737 24.847312 189.406627 27.072513 185.4463 31.032839 
C 181.485974 34.993166 179.260773 40.365276 179.260773 45.966024 
C 179.260773 51.566771 181.485974 56.938881 185.4463 60.899208 
C 189.406627 64.859535 194.778737 67.084735 200.379485 67.084735 
z
" style="fill:#fa9fb5;stroke:#ffffff;stroke-width:2.0;"/>
    <path clip-path="url(#p01317cf840)" d="M 275.963129 68.074733 
C 282.473851 68.074733 288.718788 65.487996 293.322564 60.88422 
C 297.926341 56.280444 300.513078 50.035507 300.513078 43.524784 
C 300.513078 37.014062 297.926341 30.769125 293.322564 26.165349 
C 288.718788 21.561573 282.473851 18.974835 275.963129 18.974835 
C 269.452406 18.974835 263.207469 21.561573 258.603693 26.165349 
C 253.999917 30.769125 251.41318 37.014062 251.41318 43.524784 
C 251.41318 50.035507 253.999917 56.280444 258.603693 60.88422 
C 263.207469 65.487996 269.452406 68.074733 275.963129 68.074733 
z
" style="fill:#fcc5c0;stroke:#ffffff;stroke-width:2.0;"/>
    <path clip-path="url(#p01317cf840)" d="M 72.039489 131.574776 
C 74.256751 131.574776 76.383499 130.693848 77.951341 129.126006 
C 79.519183 127.558165 80.40011 125.431417 80.40011 123.214154 
C 80.40011 120.996891 79.519183 118.870143 77.951341 117.302302 
C 76.383499 115.73446 74.256751 114.853532 72.039489 114.853532 
C 69.822226 114.853532 67.695478 115.73446 66.127636 117.302302 
C 64.559795 118.870143 63.678867 120.996891 63.678867 123.214154 
C 63.678867 125.431417 64.559795 127.558165 66.127636 129.126006 
C 67.695478 130.693848 69.822226 131.574776 72.039489 131.574776 
z
" style="fill:#08519c;stroke:#ffffff;stroke-width:2.0;"/>
    <path clip-path="url(#p01317cf840)" d="M 57.531489 133.484803 
C 59.561636 133.484803 61.508906 132.678217 62.944437 131.242687 
C 64.379967 129.807156 65.186553 127.859886 65.186553 125.829739 
C 65.186553 123.799592 64.379967 121.852322 62.944437 120.416792 
C 61.508906 118.981261 59.561636 118.174675 57.531489 118.174675 
C 55.501343 118.174675 53.554072 118.981261 52.118542 120.416792 
C 50.683011 121.852322 49.876425 123.799592 49.876425 125.829739 
C 49.876425 127.859886 50.683011 129.807156 52.118542 131.242687 
C 53.554072 132.678217 55.501343 133.484803 57.531489 133.484803 
z
" style="stroke:#ffffff;stroke-width:2.0;"/>
    <path clip-path="url(#p01317cf840)" d="M 193.784943 249.73207 
C 195.660212 249.73207 197.458928 248.987018 198.784943 247.661002 
C 200.110959 246.334987 200.856011 244.536271 200.856011 242.661002 
C 200.856011 240.785733 200.110959 238.987018 198.784943 237.661002 
C 197.458928 236.334987 195.660212 235.589935 193.784943 235.589935 
C 191.909674 235.589935 190.110959 236.334987 188.784943 237.661002 
C 187.458928 238.987018 186.713875 240.785733 186.713875 242.661002 
C 186.713875 244.536271 187.458928 246.334987 188.784943 247.661002 
C 190.110959 248.987018 191.909674 249.73207 193.784943 249.73207 
z
" style="fill:#e6e6e6;stroke:#ffffff;stroke-width:2.0;"/>
    <path clip-path="url(#p01317cf840)" d="M 244.512216 261.369289 
C 249.473712 261.369289 254.232665 259.398066 257.740972 255.889759 
C 261.24928 252.381452 263.220503 247.622498 263.220503 242.661002 
C 263.220503 237.699507 261.24928 232.940553 257.740972 229.432246 
C 254.232665 225.923939 249.473712 223.952715 244.512216 223.952715 
C 239.55072 223.952715 234.791767 225.923939 231.283459 229.432246 
C 227.775152 232.940553 225.803929 237.699507 225.803929 242.661002 
C 225.803929 247.622498 227.775152 252.381452 231.283459 255.889759 
C 234.791767 259.398066 239.55072 261.369289 244.512216 261.369289 
z
" style="fill:#e6e6e6;stroke:#ffffff;stroke-width:2.0;"/>
    <path clip-path="url(#p01317cf840)" d="M 295.239489 268.1561 
C 302.000868 268.1561 308.486228 265.469776 313.267245 260.688759 
C 318.048262 255.907742 320.734586 249.422381 320.734586 242.661002 
C 320.734586 235.899623 318.048262 229.414263 313.267245 224.633246 
C 308.486228 219.852229 302.000868 217.165905 295.239489 217.165905 
C 288.47811 217.165905 281.992749 219.852229 277.211732 224.633246 
C 272.430715 229.414263 269.744391 235.899623 269.744391 242.661002 
C 269.744391 249.422381 272.430715 255.907742 277.211732 260.688759 
C 281.992749 265.469776 288.47811 268.1561 295.239489 268.1561 
z
" style="fill:#e6e6e6;stroke:#ffffff;stroke-width:2.0;"/>
    <path clip-path="url(#p01317cf840)" d="M 345.966761 273.483072 
C 354.14087 273.483072 361.981289 270.235465 367.761256 264.455497 
C 373.541224 258.675529 376.788831 250.835111 376.788831 242.661002 
C 376.788831 234.486894 373.541224 226.646475 367.761256 220.866508 
C 361.981289 215.08654 354.14087 211.838932 345.966761 211.838932 
C 337.792653 211.838932 329.952234 215.08654 324.172267 220.866508 
C 318.392299 226.646475 315.144691 234.486894 315.144691 242.661002 
C 315.144691 250.835111 318.392299 258.675529 324.172267 264.455497 
C 329.952234 270.235465 337.792653 273.483072 345.966761 273.483072 
z
" style="fill:#e6e6e6;stroke:#ffffff;stroke-width:2.0;"/>
    <path clip-path="url(#p01317cf840)" d="M 396.694034 278.016341 
C 406.07038 278.016341 415.063957 274.29108 421.694034 267.661002 
C 428.324112 261.030925 432.049373 252.037348 432.049373 242.661002 
C 432.049373 233.284657 428.324112 224.29108 421.694034 217.661002 
C 415.063957 211.030925 406.07038 207.305663 396.694034 207.305663 
C 387.317689 207.305663 378.324112 211.030925 371.694034 217.661002 
C 365.063957 224.29108 361.338695 233.284657 361.338695 242.661002 
C 361.338695 252.037348 365.063957 261.030925 371.694034 267.661002 
C 378.324112 274.29108 387.317689 278.016341 396.694034 278.016341 
z
" style="fill:#e6e6e6;stroke:#ffffff;stroke-width:2.0;"/>
    <path clip-path="url(#p01317cf840)" d="M 447.421307 282.031042 
C 457.862363 282.031042 467.877187 277.882766 475.260129 270.499824 
C 482.64307 263.116882 486.791346 253.102059 486.791346 242.661002 
C 486.791346 232.219946 482.64307 222.205122 475.260129 214.822181 
C 467.877187 207.439239 457.862363 203.290963 447.421307 203.290963 
C 436.98025 203.290963 426.965427 207.439239 419.582485 214.822181 
C 412.199543 222.205122 408.051267 232.219946 408.051267 242.661002 
C 408.051267 253.102059 412.199543 263.116882 419.582485 270.499824 
C 426.965427 277.882766 436.98025 282.031042 447.421307 282.031042 
z
" style="fill:#e6e6e6;stroke:#ffffff;stroke-width:2.0;"/>
   </g>
   <g id="PathCollection_2">
    <defs>
     <path d="M 0 1.581139 
C 0.419323 1.581139 0.821528 1.41454 1.118034 1.118034 
C 1.41454 0.821528 1.581139 0.419323 1.581139 0 
C 1.581139 -0.419323 1.41454 -0.821528 1.118034 -1.118034 
C 0.821528 -1.41454 0.419323 -1.581139 0 -1.581139 
C -0.419323 -1.581139 -0.821528 -1.41454 -1.118034 -1.118034 
C -1.41454 -0.821528 -1.581139 -0.419323 -1.581139 0 
C -1.581139 0.419323 -1.41454 0.821528 -1.118034 1.118034 
C -0.821528 1.41454 -0.419323 1.581139 0 1.581139 
z
" id="m5f4734cd11"/>
    </defs>
    <g clip-path="url(#p01317cf840)">
     <use style="fill:#e6e6e6;" x="67.169670261" xlink:href="#m5f4734cd11" y="176.224136634"/>
     <use style="fill:#e6e6e6;" x="157.76857761" xlink:href="#m5f4734cd11" y="37.5088254642"/>
     <use style="fill:#e6e6e6;" x="228.685312236" xlink:href="#m5f4734cd11" y="23.820390625"/>
     <use style="fill:#e6e6e6;" x="54.7922154253" xlink:href="#m5f4734cd11" y="228.711015625"/>
     <use style="fill:#e6e6e6;" x="64.531852176" xlink:href="#m5f4734cd11" y="246.0613095"/>
     <use style="fill:#e6e6e6;" x="355.807845306" xlink:href="#m5f4734cd11" y="106.474103374"/>
     <use style="fill:#e6e6e6;" x="440.218043379" xlink:href="#m5f4734cd11" y="105.427895947"/>
     <use style="fill:#e6e6e6;" x="78.4311261611" xlink:href="#m5f4734cd11" y="115.628817482"/>
     <use style="fill:#e6e6e6;" x="116.070762912" xlink:href="#m5f4734cd11" y="83.3694690895"/>
     <use style="fill:#e6e6e6;" x="124.897307205" xlink:href="#m5f4734cd11" y="59.6544584465"/>
     <use style="fill:#e6e6e6;" x="200.379484766" xlink:href="#m5f4734cd11" y="45.9660236073"/>
     <use style="fill:#e6e6e6;" x="275.96312887" xlink:href="#m5f4734cd11" y="43.5247842503"/>
     <use style="fill:#e6e6e6;" x="72.0394886364" xlink:href="#m5f4734cd11" y="123.214153929"/>
     <use style="fill:#e6e6e6;" x="57.5314891685" xlink:href="#m5f4734cd11" y="125.829739017"/>
     <use style="fill:#e6e6e6;" x="193.784943182" xlink:href="#m5f4734cd11" y="242.661002321"/>
     <use style="fill:#e6e6e6;" x="244.512215909" xlink:href="#m5f4734cd11" y="242.661002321"/>
     <use style="fill:#e6e6e6;" x="295.239488636" xlink:href="#m5f4734cd11" y="242.661002321"/>
     <use style="fill:#e6e6e6;" x="345.966761364" xlink:href="#m5f4734cd11" y="242.661002321"/>
     <use style="fill:#e6e6e6;" x="396.694034091" xlink:href="#m5f4734cd11" y="242.661002321"/>
     <use style="fill:#e6e6e6;" x="447.421306818" xlink:href="#m5f4734cd11" y="242.661002321"/>
    </g>
   </g>
   <g id="patch_3">
    <path d="M 41.603125 286.254752 
L 488.003125 286.254752 
" style="fill:none;stroke:#000000;stroke-linecap:square;stroke-linejoin:miter;stroke-width:1.5;"/>
   </g>
   <g id="patch_4">
    <path d="M 41.603125 286.254752 
L 41.603125 7.254752 
" style="fill:none;stroke:#000000;stroke-linecap:square;stroke-linejoin:miter;stroke-width:1.5;"/>
   </g>
   <g id="matplotlib.axis_1">
    <g id="xtick_1">
     <g id="line2d_1">
      <path clip-path="url(#p01317cf840)" d="M 41.603125 286.254752 
L 41.603125 7.254752 
" style="fill:none;stroke:#999999;stroke-dasharray:1.000000,3.000000;stroke-dashoffset:0.0;stroke-width:0.5;"/>
     </g>
     <g id="line2d_2">
      <defs>
       <path d="M 0 0 
L 0 3 
" id="md1d15935a9" style="stroke:#000000;stroke-width:1.5;"/>
      </defs>
      <g>
       <use style="stroke:#000000;stroke-width:1.5;" x="41.603125" xlink:href="#md1d15935a9" y="286.254752321"/>
      </g>
     </g>
     <g id="text_1">
      <!-- 0 -->
      <defs>
       <path d="M 31.78125 66.40625 
Q 24.171875 66.40625 20.328125 58.90625 
Q 16.5 51.421875 16.5 36.375 
Q 16.5 21.390625 20.328125 13.890625 
Q 24.171875 6.390625 31.78125 6.390625 
Q 39.453125 6.390625 43.28125 13.890625 
Q 47.125 21.390625 47.125 36.375 
Q 47.125 51.421875 43.28125 58.90625 
Q 39.453125 66.40625 31.78125 66.40625 
M 31.78125 74.21875 
Q 44.046875 74.21875 50.515625 64.515625 
Q 56.984375 54.828125 56.984375 36.375 
Q 56.984375 17.96875 50.515625 8.265625 
Q 44.046875 -1.421875 31.78125 -1.421875 
Q 19.53125 -1.421875 13.0625 8.265625 
Q 6.59375 17.96875 6.59375 36.375 
Q 6.59375 54.828125 13.0625 64.515625 
Q 19.53125 74.21875 31.78125 74.21875 
" id="BitstreamVeraSans-Roman-30"/>
      </defs>
      <g transform="translate(38.421875 300.853189821)scale(0.1 -0.1)">
       <use xlink:href="#BitstreamVeraSans-Roman-30"/>
      </g>
     </g>
    </g>
    <g id="xtick_2">
     <g id="line2d_3">
      <path clip-path="url(#p01317cf840)" d="M 92.330398 286.254752 
L 92.330398 7.254752 
" style="fill:none;stroke:#999999;stroke-dasharray:1.000000,3.000000;stroke-dashoffset:0.0;stroke-width:0.5;"/>
     </g>
     <g id="line2d_4">
      <g>
       <use style="stroke:#000000;stroke-width:1.5;" x="92.3303977273" xlink:href="#md1d15935a9" y="286.254752321"/>
      </g>
     </g>
     <g id="text_2">
      <!-- 5 -->
      <defs>
       <path d="M 10.796875 72.90625 
L 49.515625 72.90625 
L 49.515625 64.59375 
L 19.828125 64.59375 
L 19.828125 46.734375 
Q 21.96875 47.46875 24.109375 47.828125 
Q 26.265625 48.1875 28.421875 48.1875 
Q 40.625 48.1875 47.75 41.5 
Q 54.890625 34.8125 54.890625 23.390625 
Q 54.890625 11.625 47.5625 5.09375 
Q 40.234375 -1.421875 26.90625 -1.421875 
Q 22.3125 -1.421875 17.546875 -0.640625 
Q 12.796875 0.140625 7.71875 1.703125 
L 7.71875 11.625 
Q 12.109375 9.234375 16.796875 8.0625 
Q 21.484375 6.890625 26.703125 6.890625 
Q 35.15625 6.890625 40.078125 11.328125 
Q 45.015625 15.765625 45.015625 23.390625 
Q 45.015625 31 40.078125 35.4375 
Q 35.15625 39.890625 26.703125 39.890625 
Q 22.75 39.890625 18.8125 39.015625 
Q 14.890625 38.140625 10.796875 36.28125 
z
" id="BitstreamVeraSans-Roman-35"/>
      </defs>
      <g transform="translate(89.1491477273 300.853189821)scale(0.1 -0.1)">
       <use xlink:href="#BitstreamVeraSans-Roman-35"/>
      </g>
     </g>
    </g>
    <g id="xtick_3">
     <g id="line2d_5">
      <path clip-path="url(#p01317cf840)" d="M 143.05767 286.254752 
L 143.05767 7.254752 
" style="fill:none;stroke:#999999;stroke-dasharray:1.000000,3.000000;stroke-dashoffset:0.0;stroke-width:0.5;"/>
     </g>
     <g id="line2d_6">
      <g>
       <use style="stroke:#000000;stroke-width:1.5;" x="143.057670455" xlink:href="#md1d15935a9" y="286.254752321"/>
      </g>
     </g>
     <g id="text_3">
      <!-- 10 -->
      <defs>
       <path d="M 12.40625 8.296875 
L 28.515625 8.296875 
L 28.515625 63.921875 
L 10.984375 60.40625 
L 10.984375 69.390625 
L 28.421875 72.90625 
L 38.28125 72.90625 
L 38.28125 8.296875 
L 54.390625 8.296875 
L 54.390625 0 
L 12.40625 0 
z
" id="BitstreamVeraSans-Roman-31"/>
      </defs>
      <g transform="translate(136.695170455 300.853189821)scale(0.1 -0.1)">
       <use xlink:href="#BitstreamVeraSans-Roman-31"/>
       <use x="63.623046875" xlink:href="#BitstreamVeraSans-Roman-30"/>
      </g>
     </g>
    </g>
    <g id="xtick_4">
     <g id="line2d_7">
      <path clip-path="url(#p01317cf840)" d="M 193.784943 286.254752 
L 193.784943 7.254752 
" style="fill:none;stroke:#999999;stroke-dasharray:1.000000,3.000000;stroke-dashoffset:0.0;stroke-width:0.5;"/>
     </g>
     <g id="line2d_8">
      <g>
       <use style="stroke:#000000;stroke-width:1.5;" x="193.784943182" xlink:href="#md1d15935a9" y="286.254752321"/>
      </g>
     </g>
     <g id="text_4">
      <!-- 15 -->
      <g transform="translate(187.422443182 300.853189821)scale(0.1 -0.1)">
       <use xlink:href="#BitstreamVeraSans-Roman-31"/>
       <use x="63.623046875" xlink:href="#BitstreamVeraSans-Roman-35"/>
      </g>
     </g>
    </g>
    <g id="xtick_5">
     <g id="line2d_9">
      <path clip-path="url(#p01317cf840)" d="M 244.512216 286.254752 
L 244.512216 7.254752 
" style="fill:none;stroke:#999999;stroke-dasharray:1.000000,3.000000;stroke-dashoffset:0.0;stroke-width:0.5;"/>
     </g>
     <g id="line2d_10">
      <g>
       <use style="stroke:#000000;stroke-width:1.5;" x="244.512215909" xlink:href="#md1d15935a9" y="286.254752321"/>
      </g>
     </g>
     <g id="text_5">
      <!-- 20 -->
      <defs>
       <path d="M 19.1875 8.296875 
L 53.609375 8.296875 
L 53.609375 0 
L 7.328125 0 
L 7.328125 8.296875 
Q 12.9375 14.109375 22.625 23.890625 
Q 32.328125 33.6875 34.8125 36.53125 
Q 39.546875 41.84375 41.421875 45.53125 
Q 43.3125 49.21875 43.3125 52.78125 
Q 43.3125 58.59375 39.234375 62.25 
Q 35.15625 65.921875 28.609375 65.921875 
Q 23.96875 65.921875 18.8125 64.3125 
Q 13.671875 62.703125 7.8125 59.421875 
L 7.8125 69.390625 
Q 13.765625 71.78125 18.9375 73 
Q 24.125 74.21875 28.421875 74.21875 
Q 39.75 74.21875 46.484375 68.546875 
Q 53.21875 62.890625 53.21875 53.421875 
Q 53.21875 48.921875 51.53125 44.890625 
Q 49.859375 40.875 45.40625 35.40625 
Q 44.1875 33.984375 37.640625 27.21875 
Q 31.109375 20.453125 19.1875 8.296875 
" id="BitstreamVeraSans-Roman-32"/>
      </defs>
      <g transform="translate(238.149715909 300.853189821)scale(0.1 -0.1)">
       <use xlink:href="#BitstreamVeraSans-Roman-32"/>
       <use x="63.623046875" xlink:href="#BitstreamVeraSans-Roman-30"/>
      </g>
     </g>
    </g>
    <g id="xtick_6">
     <g id="line2d_11">
      <path clip-path="url(#p01317cf840)" d="M 295.239489 286.254752 
L 295.239489 7.254752 
" style="fill:none;stroke:#999999;stroke-dasharray:1.000000,3.000000;stroke-dashoffset:0.0;stroke-width:0.5;"/>
     </g>
     <g id="line2d_12">
      <g>
       <use style="stroke:#000000;stroke-width:1.5;" x="295.239488636" xlink:href="#md1d15935a9" y="286.254752321"/>
      </g>
     </g>
     <g id="text_6">
      <!-- 25 -->
      <g transform="translate(288.876988636 300.853189821)scale(0.1 -0.1)">
       <use xlink:href="#BitstreamVeraSans-Roman-32"/>
       <use x="63.623046875" xlink:href="#BitstreamVeraSans-Roman-35"/>
      </g>
     </g>
    </g>
    <g id="xtick_7">
     <g id="line2d_13">
      <path clip-path="url(#p01317cf840)" d="M 345.966761 286.254752 
L 345.966761 7.254752 
" style="fill:none;stroke:#999999;stroke-dasharray:1.000000,3.000000;stroke-dashoffset:0.0;stroke-width:0.5;"/>
     </g>
     <g id="line2d_14">
      <g>
       <use style="stroke:#000000;stroke-width:1.5;" x="345.966761364" xlink:href="#md1d15935a9" y="286.254752321"/>
      </g>
     </g>
     <g id="text_7">
      <!-- 30 -->
      <defs>
       <path d="M 40.578125 39.3125 
Q 47.65625 37.796875 51.625 33 
Q 55.609375 28.21875 55.609375 21.1875 
Q 55.609375 10.40625 48.1875 4.484375 
Q 40.765625 -1.421875 27.09375 -1.421875 
Q 22.515625 -1.421875 17.65625 -0.515625 
Q 12.796875 0.390625 7.625 2.203125 
L 7.625 11.71875 
Q 11.71875 9.328125 16.59375 8.109375 
Q 21.484375 6.890625 26.8125 6.890625 
Q 36.078125 6.890625 40.9375 10.546875 
Q 45.796875 14.203125 45.796875 21.1875 
Q 45.796875 27.640625 41.28125 31.265625 
Q 36.765625 34.90625 28.71875 34.90625 
L 20.21875 34.90625 
L 20.21875 43.015625 
L 29.109375 43.015625 
Q 36.375 43.015625 40.234375 45.921875 
Q 44.09375 48.828125 44.09375 54.296875 
Q 44.09375 59.90625 40.109375 62.90625 
Q 36.140625 65.921875 28.71875 65.921875 
Q 24.65625 65.921875 20.015625 65.03125 
Q 15.375 64.15625 9.8125 62.3125 
L 9.8125 71.09375 
Q 15.4375 72.65625 20.34375 73.4375 
Q 25.25 74.21875 29.59375 74.21875 
Q 40.828125 74.21875 47.359375 69.109375 
Q 53.90625 64.015625 53.90625 55.328125 
Q 53.90625 49.265625 50.4375 45.09375 
Q 46.96875 40.921875 40.578125 39.3125 
" id="BitstreamVeraSans-Roman-33"/>
      </defs>
      <g transform="translate(339.604261364 300.853189821)scale(0.1 -0.1)">
       <use xlink:href="#BitstreamVeraSans-Roman-33"/>
       <use x="63.623046875" xlink:href="#BitstreamVeraSans-Roman-30"/>
      </g>
     </g>
    </g>
    <g id="xtick_8">
     <g id="line2d_15">
      <path clip-path="url(#p01317cf840)" d="M 396.694034 286.254752 
L 396.694034 7.254752 
" style="fill:none;stroke:#999999;stroke-dasharray:1.000000,3.000000;stroke-dashoffset:0.0;stroke-width:0.5;"/>
     </g>
     <g id="line2d_16">
      <g>
       <use style="stroke:#000000;stroke-width:1.5;" x="396.694034091" xlink:href="#md1d15935a9" y="286.254752321"/>
      </g>
     </g>
     <g id="text_8">
      <!-- 35 -->
      <g transform="translate(390.331534091 300.853189821)scale(0.1 -0.1)">
       <use xlink:href="#BitstreamVeraSans-Roman-33"/>
       <use x="63.623046875" xlink:href="#BitstreamVeraSans-Roman-35"/>
      </g>
     </g>
    </g>
    <g id="xtick_9">
     <g id="line2d_17">
      <path clip-path="url(#p01317cf840)" d="M 447.421307 286.254752 
L 447.421307 7.254752 
" style="fill:none;stroke:#999999;stroke-dasharray:1.000000,3.000000;stroke-dashoffset:0.0;stroke-width:0.5;"/>
     </g>
     <g id="line2d_18">
      <g>
       <use style="stroke:#000000;stroke-width:1.5;" x="447.421306818" xlink:href="#md1d15935a9" y="286.254752321"/>
      </g>
     </g>
     <g id="text_9">
      <!-- 40 -->
      <defs>
       <path d="M 37.796875 64.3125 
L 12.890625 25.390625 
L 37.796875 25.390625 
z
M 35.203125 72.90625 
L 47.609375 72.90625 
L 47.609375 25.390625 
L 58.015625 25.390625 
L 58.015625 17.1875 
L 47.609375 17.1875 
L 47.609375 0 
L 37.796875 0 
L 37.796875 17.1875 
L 4.890625 17.1875 
L 4.890625 26.703125 
z
" id="BitstreamVeraSans-Roman-34"/>
      </defs>
      <g transform="translate(441.058806818 300.853189821)scale(0.1 -0.1)">
       <use xlink:href="#BitstreamVeraSans-Roman-34"/>
       <use x="63.623046875" xlink:href="#BitstreamVeraSans-Roman-30"/>
      </g>
     </g>
    </g>
    <g id="text_10">
     <!-- Operations [G-Ops] -->
     <defs>
      <path d="M 8.59375 75.984375 
L 29.296875 75.984375 
L 29.296875 69 
L 17.578125 69 
L 17.578125 -6.203125 
L 29.296875 -6.203125 
L 29.296875 -13.1875 
L 8.59375 -13.1875 
z
" id="BitstreamVeraSans-Roman-5b"/>
      <path d="M 18.3125 70.21875 
L 18.3125 54.6875 
L 36.8125 54.6875 
L 36.8125 47.703125 
L 18.3125 47.703125 
L 18.3125 18.015625 
Q 18.3125 11.328125 20.140625 9.421875 
Q 21.96875 7.515625 27.59375 7.515625 
L 36.8125 7.515625 
L 36.8125 0 
L 27.59375 0 
Q 17.1875 0 13.234375 3.875 
Q 9.28125 7.765625 9.28125 18.015625 
L 9.28125 47.703125 
L 2.6875 47.703125 
L 2.6875 54.6875 
L 9.28125 54.6875 
L 9.28125 70.21875 
z
" id="BitstreamVeraSans-Roman-74"/>
      <path d="M 34.28125 27.484375 
Q 23.390625 27.484375 19.1875 25 
Q 14.984375 22.515625 14.984375 16.5 
Q 14.984375 11.71875 18.140625 8.90625 
Q 21.296875 6.109375 26.703125 6.109375 
Q 34.1875 6.109375 38.703125 11.40625 
Q 43.21875 16.703125 43.21875 25.484375 
L 43.21875 27.484375 
z
M 52.203125 31.203125 
L 52.203125 0 
L 43.21875 0 
L 43.21875 8.296875 
Q 40.140625 3.328125 35.546875 0.953125 
Q 30.953125 -1.421875 24.3125 -1.421875 
Q 15.921875 -1.421875 10.953125 3.296875 
Q 6 8.015625 6 15.921875 
Q 6 25.140625 12.171875 29.828125 
Q 18.359375 34.515625 30.609375 34.515625 
L 43.21875 34.515625 
L 43.21875 35.40625 
Q 43.21875 41.609375 39.140625 45 
Q 35.0625 48.390625 27.6875 48.390625 
Q 23 48.390625 18.546875 47.265625 
Q 14.109375 46.140625 10.015625 43.890625 
L 10.015625 52.203125 
Q 14.9375 54.109375 19.578125 55.046875 
Q 24.21875 56 28.609375 56 
Q 40.484375 56 46.34375 49.84375 
Q 52.203125 43.703125 52.203125 31.203125 
" id="BitstreamVeraSans-Roman-61"/>
      <path d="M 39.40625 66.21875 
Q 28.65625 66.21875 22.328125 58.203125 
Q 16.015625 50.203125 16.015625 36.375 
Q 16.015625 22.609375 22.328125 14.59375 
Q 28.65625 6.59375 39.40625 6.59375 
Q 50.140625 6.59375 56.421875 14.59375 
Q 62.703125 22.609375 62.703125 36.375 
Q 62.703125 50.203125 56.421875 58.203125 
Q 50.140625 66.21875 39.40625 66.21875 
M 39.40625 74.21875 
Q 54.734375 74.21875 63.90625 63.9375 
Q 73.09375 53.65625 73.09375 36.375 
Q 73.09375 19.140625 63.90625 8.859375 
Q 54.734375 -1.421875 39.40625 -1.421875 
Q 24.03125 -1.421875 14.8125 8.828125 
Q 5.609375 19.09375 5.609375 36.375 
Q 5.609375 53.65625 14.8125 63.9375 
Q 24.03125 74.21875 39.40625 74.21875 
" id="BitstreamVeraSans-Roman-4f"/>
      <path d="M 41.109375 46.296875 
Q 39.59375 47.171875 37.8125 47.578125 
Q 36.03125 48 33.890625 48 
Q 26.265625 48 22.1875 43.046875 
Q 18.109375 38.09375 18.109375 28.8125 
L 18.109375 0 
L 9.078125 0 
L 9.078125 54.6875 
L 18.109375 54.6875 
L 18.109375 46.1875 
Q 20.953125 51.171875 25.484375 53.578125 
Q 30.03125 56 36.53125 56 
Q 37.453125 56 38.578125 55.875 
Q 39.703125 55.765625 41.0625 55.515625 
z
" id="BitstreamVeraSans-Roman-72"/>
      <path d="M 59.515625 10.40625 
L 59.515625 29.984375 
L 43.40625 29.984375 
L 43.40625 38.09375 
L 69.28125 38.09375 
L 69.28125 6.78125 
Q 63.578125 2.734375 56.6875 0.65625 
Q 49.8125 -1.421875 42 -1.421875 
Q 24.90625 -1.421875 15.25 8.5625 
Q 5.609375 18.5625 5.609375 36.375 
Q 5.609375 54.25 15.25 64.234375 
Q 24.90625 74.21875 42 74.21875 
Q 49.125 74.21875 55.546875 72.453125 
Q 61.96875 70.703125 67.390625 67.28125 
L 67.390625 56.78125 
Q 61.921875 61.421875 55.765625 63.765625 
Q 49.609375 66.109375 42.828125 66.109375 
Q 29.4375 66.109375 22.71875 58.640625 
Q 16.015625 51.171875 16.015625 36.375 
Q 16.015625 21.625 22.71875 14.15625 
Q 29.4375 6.6875 42.828125 6.6875 
Q 48.046875 6.6875 52.140625 7.59375 
Q 56.25 8.5 59.515625 10.40625 
" id="BitstreamVeraSans-Roman-47"/>
      <path d="M 44.28125 53.078125 
L 44.28125 44.578125 
Q 40.484375 46.53125 36.375 47.5 
Q 32.28125 48.484375 27.875 48.484375 
Q 21.1875 48.484375 17.84375 46.4375 
Q 14.5 44.390625 14.5 40.28125 
Q 14.5 37.15625 16.890625 35.375 
Q 19.28125 33.59375 26.515625 31.984375 
L 29.59375 31.296875 
Q 39.15625 29.25 43.1875 25.515625 
Q 47.21875 21.78125 47.21875 15.09375 
Q 47.21875 7.46875 41.1875 3.015625 
Q 35.15625 -1.421875 24.609375 -1.421875 
Q 20.21875 -1.421875 15.453125 -0.5625 
Q 10.6875 0.296875 5.421875 2 
L 5.421875 11.28125 
Q 10.40625 8.6875 15.234375 7.390625 
Q 20.0625 6.109375 24.8125 6.109375 
Q 31.15625 6.109375 34.5625 8.28125 
Q 37.984375 10.453125 37.984375 14.40625 
Q 37.984375 18.0625 35.515625 20.015625 
Q 33.0625 21.96875 24.703125 23.78125 
L 21.578125 24.515625 
Q 13.234375 26.265625 9.515625 29.90625 
Q 5.8125 33.546875 5.8125 39.890625 
Q 5.8125 47.609375 11.28125 51.796875 
Q 16.75 56 26.8125 56 
Q 31.78125 56 36.171875 55.265625 
Q 40.578125 54.546875 44.28125 53.078125 
" id="BitstreamVeraSans-Roman-73"/>
      <path d="M 30.609375 48.390625 
Q 23.390625 48.390625 19.1875 42.75 
Q 14.984375 37.109375 14.984375 27.296875 
Q 14.984375 17.484375 19.15625 11.84375 
Q 23.34375 6.203125 30.609375 6.203125 
Q 37.796875 6.203125 41.984375 11.859375 
Q 46.1875 17.53125 46.1875 27.296875 
Q 46.1875 37.015625 41.984375 42.703125 
Q 37.796875 48.390625 30.609375 48.390625 
M 30.609375 56 
Q 42.328125 56 49.015625 48.375 
Q 55.71875 40.765625 55.71875 27.296875 
Q 55.71875 13.875 49.015625 6.21875 
Q 42.328125 -1.421875 30.609375 -1.421875 
Q 18.84375 -1.421875 12.171875 6.21875 
Q 5.515625 13.875 5.515625 27.296875 
Q 5.515625 40.765625 12.171875 48.375 
Q 18.84375 56 30.609375 56 
" id="BitstreamVeraSans-Roman-6f"/>
      <path d="M 18.109375 8.203125 
L 18.109375 -20.796875 
L 9.078125 -20.796875 
L 9.078125 54.6875 
L 18.109375 54.6875 
L 18.109375 46.390625 
Q 20.953125 51.265625 25.265625 53.625 
Q 29.59375 56 35.59375 56 
Q 45.5625 56 51.78125 48.09375 
Q 58.015625 40.1875 58.015625 27.296875 
Q 58.015625 14.40625 51.78125 6.484375 
Q 45.5625 -1.421875 35.59375 -1.421875 
Q 29.59375 -1.421875 25.265625 0.953125 
Q 20.953125 3.328125 18.109375 8.203125 
M 48.6875 27.296875 
Q 48.6875 37.203125 44.609375 42.84375 
Q 40.53125 48.484375 33.40625 48.484375 
Q 26.265625 48.484375 22.1875 42.84375 
Q 18.109375 37.203125 18.109375 27.296875 
Q 18.109375 17.390625 22.1875 11.75 
Q 26.265625 6.109375 33.40625 6.109375 
Q 40.53125 6.109375 44.609375 11.75 
Q 48.6875 17.390625 48.6875 27.296875 
" id="BitstreamVeraSans-Roman-70"/>
      <path d="M 56.203125 29.59375 
L 56.203125 25.203125 
L 14.890625 25.203125 
Q 15.484375 15.921875 20.484375 11.0625 
Q 25.484375 6.203125 34.421875 6.203125 
Q 39.59375 6.203125 44.453125 7.46875 
Q 49.3125 8.734375 54.109375 11.28125 
L 54.109375 2.78125 
Q 49.265625 0.734375 44.1875 -0.34375 
Q 39.109375 -1.421875 33.890625 -1.421875 
Q 20.796875 -1.421875 13.15625 6.1875 
Q 5.515625 13.8125 5.515625 26.8125 
Q 5.515625 40.234375 12.765625 48.109375 
Q 20.015625 56 32.328125 56 
Q 43.359375 56 49.78125 48.890625 
Q 56.203125 41.796875 56.203125 29.59375 
M 47.21875 32.234375 
Q 47.125 39.59375 43.09375 43.984375 
Q 39.0625 48.390625 32.421875 48.390625 
Q 24.90625 48.390625 20.390625 44.140625 
Q 15.875 39.890625 15.1875 32.171875 
z
" id="BitstreamVeraSans-Roman-65"/>
      <path d="M 9.421875 54.6875 
L 18.40625 54.6875 
L 18.40625 0 
L 9.421875 0 
z
M 9.421875 75.984375 
L 18.40625 75.984375 
L 18.40625 64.59375 
L 9.421875 64.59375 
z
" id="BitstreamVeraSans-Roman-69"/>
      <path d="M 4.890625 31.390625 
L 31.203125 31.390625 
L 31.203125 23.390625 
L 4.890625 23.390625 
z
" id="BitstreamVeraSans-Roman-2d"/>
      <path d="M 54.890625 33.015625 
L 54.890625 0 
L 45.90625 0 
L 45.90625 32.71875 
Q 45.90625 40.484375 42.875 44.328125 
Q 39.84375 48.1875 33.796875 48.1875 
Q 26.515625 48.1875 22.3125 43.546875 
Q 18.109375 38.921875 18.109375 30.90625 
L 18.109375 0 
L 9.078125 0 
L 9.078125 54.6875 
L 18.109375 54.6875 
L 18.109375 46.1875 
Q 21.34375 51.125 25.703125 53.5625 
Q 30.078125 56 35.796875 56 
Q 45.21875 56 50.046875 50.171875 
Q 54.890625 44.34375 54.890625 33.015625 
" id="BitstreamVeraSans-Roman-6e"/>
      <path id="BitstreamVeraSans-Roman-20"/>
      <path d="M 30.421875 75.984375 
L 30.421875 -13.1875 
L 9.71875 -13.1875 
L 9.71875 -6.203125 
L 21.390625 -6.203125 
L 21.390625 69 
L 9.71875 69 
L 9.71875 75.984375 
z
" id="BitstreamVeraSans-Roman-5d"/>
     </defs>
     <g transform="translate(216.4296875 315.531314821)scale(0.1 -0.1)">
      <use xlink:href="#BitstreamVeraSans-Roman-4f"/>
      <use x="78.7109375" xlink:href="#BitstreamVeraSans-Roman-70"/>
      <use x="142.1875" xlink:href="#BitstreamVeraSans-Roman-65"/>
      <use x="203.7109375" xlink:href="#BitstreamVeraSans-Roman-72"/>
      <use x="244.82421875" xlink:href="#BitstreamVeraSans-Roman-61"/>
      <use x="306.103515625" xlink:href="#BitstreamVeraSans-Roman-74"/>
      <use x="345.3125" xlink:href="#BitstreamVeraSans-Roman-69"/>
      <use x="373.095703125" xlink:href="#BitstreamVeraSans-Roman-6f"/>
      <use x="434.27734375" xlink:href="#BitstreamVeraSans-Roman-6e"/>
      <use x="497.65625" xlink:href="#BitstreamVeraSans-Roman-73"/>
      <use x="549.755859375" xlink:href="#BitstreamVeraSans-Roman-20"/>
      <use x="581.54296875" xlink:href="#BitstreamVeraSans-Roman-5b"/>
      <use x="620.556640625" xlink:href="#BitstreamVeraSans-Roman-47"/>
      <use x="698.046875" xlink:href="#BitstreamVeraSans-Roman-2d"/>
      <use x="734.162109375" xlink:href="#BitstreamVeraSans-Roman-4f"/>
      <use x="812.873046875" xlink:href="#BitstreamVeraSans-Roman-70"/>
      <use x="876.349609375" xlink:href="#BitstreamVeraSans-Roman-73"/>
      <use x="928.44921875" xlink:href="#BitstreamVeraSans-Roman-5d"/>
     </g>
    </g>
   </g>
   <g id="matplotlib.axis_2">
    <g id="ytick_1">
     <g id="line2d_19">
      <path clip-path="url(#p01317cf840)" d="M 41.603125 286.254752 
L 488.003125 286.254752 
" style="fill:none;stroke:#999999;stroke-dasharray:1.000000,3.000000;stroke-dashoffset:0.0;stroke-width:0.5;"/>
     </g>
     <g id="line2d_20">
      <defs>
       <path d="M 0 0 
L -3 0 
" id="m210b8706b9" style="stroke:#000000;stroke-width:1.5;"/>
      </defs>
      <g>
       <use style="stroke:#000000;stroke-width:1.5;" x="41.603125" xlink:href="#m210b8706b9" y="286.254752321"/>
      </g>
     </g>
     <g id="text_11">
      <!-- 50 -->
      <g transform="translate(21.878125 289.014127321)scale(0.1 -0.1)">
       <use xlink:href="#BitstreamVeraSans-Roman-35"/>
       <use x="63.623046875" xlink:href="#BitstreamVeraSans-Roman-30"/>
      </g>
     </g>
    </g>
    <g id="ytick_2">
     <g id="line2d_21">
      <path clip-path="url(#p01317cf840)" d="M 41.603125 242.661002 
L 488.003125 242.661002 
" style="fill:none;stroke:#999999;stroke-dasharray:1.000000,3.000000;stroke-dashoffset:0.0;stroke-width:0.5;"/>
     </g>
     <g id="line2d_22">
      <g>
       <use style="stroke:#000000;stroke-width:1.5;" x="41.603125" xlink:href="#m210b8706b9" y="242.661002321"/>
      </g>
     </g>
     <g id="text_12">
      <!-- 55 -->
      <g transform="translate(21.878125 245.420377321)scale(0.1 -0.1)">
       <use xlink:href="#BitstreamVeraSans-Roman-35"/>
       <use x="63.623046875" xlink:href="#BitstreamVeraSans-Roman-35"/>
      </g>
     </g>
    </g>
    <g id="ytick_3">
     <g id="line2d_23">
      <path clip-path="url(#p01317cf840)" d="M 41.603125 199.067252 
L 488.003125 199.067252 
" style="fill:none;stroke:#999999;stroke-dasharray:1.000000,3.000000;stroke-dashoffset:0.0;stroke-width:0.5;"/>
     </g>
     <g id="line2d_24">
      <g>
       <use style="stroke:#000000;stroke-width:1.5;" x="41.603125" xlink:href="#m210b8706b9" y="199.067252321"/>
      </g>
     </g>
     <g id="text_13">
      <!-- 60 -->
      <defs>
       <path d="M 33.015625 40.375 
Q 26.375 40.375 22.484375 35.828125 
Q 18.609375 31.296875 18.609375 23.390625 
Q 18.609375 15.53125 22.484375 10.953125 
Q 26.375 6.390625 33.015625 6.390625 
Q 39.65625 6.390625 43.53125 10.953125 
Q 47.40625 15.53125 47.40625 23.390625 
Q 47.40625 31.296875 43.53125 35.828125 
Q 39.65625 40.375 33.015625 40.375 
M 52.59375 71.296875 
L 52.59375 62.3125 
Q 48.875 64.0625 45.09375 64.984375 
Q 41.3125 65.921875 37.59375 65.921875 
Q 27.828125 65.921875 22.671875 59.328125 
Q 17.53125 52.734375 16.796875 39.40625 
Q 19.671875 43.65625 24.015625 45.921875 
Q 28.375 48.1875 33.59375 48.1875 
Q 44.578125 48.1875 50.953125 41.515625 
Q 57.328125 34.859375 57.328125 23.390625 
Q 57.328125 12.15625 50.6875 5.359375 
Q 44.046875 -1.421875 33.015625 -1.421875 
Q 20.359375 -1.421875 13.671875 8.265625 
Q 6.984375 17.96875 6.984375 36.375 
Q 6.984375 53.65625 15.1875 63.9375 
Q 23.390625 74.21875 37.203125 74.21875 
Q 40.921875 74.21875 44.703125 73.484375 
Q 48.484375 72.75 52.59375 71.296875 
" id="BitstreamVeraSans-Roman-36"/>
      </defs>
      <g transform="translate(21.878125 201.826627321)scale(0.1 -0.1)">
       <use xlink:href="#BitstreamVeraSans-Roman-36"/>
       <use x="63.623046875" xlink:href="#BitstreamVeraSans-Roman-30"/>
      </g>
     </g>
    </g>
    <g id="ytick_4">
     <g id="line2d_25">
      <path clip-path="url(#p01317cf840)" d="M 41.603125 155.473502 
L 488.003125 155.473502 
" style="fill:none;stroke:#999999;stroke-dasharray:1.000000,3.000000;stroke-dashoffset:0.0;stroke-width:0.5;"/>
     </g>
     <g id="line2d_26">
      <g>
       <use style="stroke:#000000;stroke-width:1.5;" x="41.603125" xlink:href="#m210b8706b9" y="155.473502321"/>
      </g>
     </g>
     <g id="text_14">
      <!-- 65 -->
      <g transform="translate(21.878125 158.232877321)scale(0.1 -0.1)">
       <use xlink:href="#BitstreamVeraSans-Roman-36"/>
       <use x="63.623046875" xlink:href="#BitstreamVeraSans-Roman-35"/>
      </g>
     </g>
    </g>
    <g id="ytick_5">
     <g id="line2d_27">
      <path clip-path="url(#p01317cf840)" d="M 41.603125 111.879752 
L 488.003125 111.879752 
" style="fill:none;stroke:#999999;stroke-dasharray:1.000000,3.000000;stroke-dashoffset:0.0;stroke-width:0.5;"/>
     </g>
     <g id="line2d_28">
      <g>
       <use style="stroke:#000000;stroke-width:1.5;" x="41.603125" xlink:href="#m210b8706b9" y="111.879752321"/>
      </g>
     </g>
     <g id="text_15">
      <!-- 70 -->
      <defs>
       <path d="M 8.203125 72.90625 
L 55.078125 72.90625 
L 55.078125 68.703125 
L 28.609375 0 
L 18.3125 0 
L 43.21875 64.59375 
L 8.203125 64.59375 
z
" id="BitstreamVeraSans-Roman-37"/>
      </defs>
      <g transform="translate(21.878125 114.639127321)scale(0.1 -0.1)">
       <use xlink:href="#BitstreamVeraSans-Roman-37"/>
       <use x="63.623046875" xlink:href="#BitstreamVeraSans-Roman-30"/>
      </g>
     </g>
    </g>
    <g id="ytick_6">
     <g id="line2d_29">
      <path clip-path="url(#p01317cf840)" d="M 41.603125 68.286002 
L 488.003125 68.286002 
" style="fill:none;stroke:#999999;stroke-dasharray:1.000000,3.000000;stroke-dashoffset:0.0;stroke-width:0.5;"/>
     </g>
     <g id="line2d_30">
      <g>
       <use style="stroke:#000000;stroke-width:1.5;" x="41.603125" xlink:href="#m210b8706b9" y="68.2860023212"/>
      </g>
     </g>
     <g id="text_16">
      <!-- 75 -->
      <g transform="translate(21.878125 71.0453773212)scale(0.1 -0.1)">
       <use xlink:href="#BitstreamVeraSans-Roman-37"/>
       <use x="63.623046875" xlink:href="#BitstreamVeraSans-Roman-35"/>
      </g>
     </g>
    </g>
    <g id="ytick_7">
     <g id="line2d_31">
      <path clip-path="url(#p01317cf840)" d="M 41.603125 24.692252 
L 488.003125 24.692252 
" style="fill:none;stroke:#999999;stroke-dasharray:1.000000,3.000000;stroke-dashoffset:0.0;stroke-width:0.5;"/>
     </g>
     <g id="line2d_32">
      <g>
       <use style="stroke:#000000;stroke-width:1.5;" x="41.603125" xlink:href="#m210b8706b9" y="24.6922523212"/>
      </g>
     </g>
     <g id="text_17">
      <!-- 80 -->
      <defs>
       <path d="M 31.78125 34.625 
Q 24.75 34.625 20.71875 30.859375 
Q 16.703125 27.09375 16.703125 20.515625 
Q 16.703125 13.921875 20.71875 10.15625 
Q 24.75 6.390625 31.78125 6.390625 
Q 38.8125 6.390625 42.859375 10.171875 
Q 46.921875 13.96875 46.921875 20.515625 
Q 46.921875 27.09375 42.890625 30.859375 
Q 38.875 34.625 31.78125 34.625 
M 21.921875 38.8125 
Q 15.578125 40.375 12.03125 44.71875 
Q 8.5 49.078125 8.5 55.328125 
Q 8.5 64.0625 14.71875 69.140625 
Q 20.953125 74.21875 31.78125 74.21875 
Q 42.671875 74.21875 48.875 69.140625 
Q 55.078125 64.0625 55.078125 55.328125 
Q 55.078125 49.078125 51.53125 44.71875 
Q 48 40.375 41.703125 38.8125 
Q 48.828125 37.15625 52.796875 32.3125 
Q 56.78125 27.484375 56.78125 20.515625 
Q 56.78125 9.90625 50.3125 4.234375 
Q 43.84375 -1.421875 31.78125 -1.421875 
Q 19.734375 -1.421875 13.25 4.234375 
Q 6.78125 9.90625 6.78125 20.515625 
Q 6.78125 27.484375 10.78125 32.3125 
Q 14.796875 37.15625 21.921875 38.8125 
M 18.3125 54.390625 
Q 18.3125 48.734375 21.84375 45.5625 
Q 25.390625 42.390625 31.78125 42.390625 
Q 38.140625 42.390625 41.71875 45.5625 
Q 45.3125 48.734375 45.3125 54.390625 
Q 45.3125 60.0625 41.71875 63.234375 
Q 38.140625 66.40625 31.78125 66.40625 
Q 25.390625 66.40625 21.84375 63.234375 
Q 18.3125 60.0625 18.3125 54.390625 
" id="BitstreamVeraSans-Roman-38"/>
      </defs>
      <g transform="translate(21.878125 27.4516273212)scale(0.1 -0.1)">
       <use xlink:href="#BitstreamVeraSans-Roman-38"/>
       <use x="63.623046875" xlink:href="#BitstreamVeraSans-Roman-30"/>
      </g>
     </g>
    </g>
    <g id="text_18">
     <!-- Top-1 accuracy [%] -->
     <defs>
      <path d="M 8.5 21.578125 
L 8.5 54.6875 
L 17.484375 54.6875 
L 17.484375 21.921875 
Q 17.484375 14.15625 20.5 10.265625 
Q 23.53125 6.390625 29.59375 6.390625 
Q 36.859375 6.390625 41.078125 11.03125 
Q 45.3125 15.671875 45.3125 23.6875 
L 45.3125 54.6875 
L 54.296875 54.6875 
L 54.296875 0 
L 45.3125 0 
L 45.3125 8.40625 
Q 42.046875 3.421875 37.71875 1 
Q 33.40625 -1.421875 27.6875 -1.421875 
Q 18.265625 -1.421875 13.375 4.4375 
Q 8.5 10.296875 8.5 21.578125 
" id="BitstreamVeraSans-Roman-75"/>
      <path d="M 48.78125 52.59375 
L 48.78125 44.1875 
Q 44.96875 46.296875 41.140625 47.34375 
Q 37.3125 48.390625 33.40625 48.390625 
Q 24.65625 48.390625 19.8125 42.84375 
Q 14.984375 37.3125 14.984375 27.296875 
Q 14.984375 17.28125 19.8125 11.734375 
Q 24.65625 6.203125 33.40625 6.203125 
Q 37.3125 6.203125 41.140625 7.25 
Q 44.96875 8.296875 48.78125 10.40625 
L 48.78125 2.09375 
Q 45.015625 0.34375 40.984375 -0.53125 
Q 36.96875 -1.421875 32.421875 -1.421875 
Q 20.0625 -1.421875 12.78125 6.34375 
Q 5.515625 14.109375 5.515625 27.296875 
Q 5.515625 40.671875 12.859375 48.328125 
Q 20.21875 56 33.015625 56 
Q 37.15625 56 41.109375 55.140625 
Q 45.0625 54.296875 48.78125 52.59375 
" id="BitstreamVeraSans-Roman-63"/>
      <path d="M -0.296875 72.90625 
L 61.375 72.90625 
L 61.375 64.59375 
L 35.5 64.59375 
L 35.5 0 
L 25.59375 0 
L 25.59375 64.59375 
L -0.296875 64.59375 
z
" id="BitstreamVeraSans-Roman-54"/>
      <path d="M 72.703125 32.078125 
Q 68.453125 32.078125 66.03125 28.46875 
Q 63.625 24.859375 63.625 18.40625 
Q 63.625 12.0625 66.03125 8.421875 
Q 68.453125 4.78125 72.703125 4.78125 
Q 76.859375 4.78125 79.265625 8.421875 
Q 81.6875 12.0625 81.6875 18.40625 
Q 81.6875 24.8125 79.265625 28.4375 
Q 76.859375 32.078125 72.703125 32.078125 
M 72.703125 38.28125 
Q 80.421875 38.28125 84.953125 32.90625 
Q 89.5 27.546875 89.5 18.40625 
Q 89.5 9.28125 84.9375 3.921875 
Q 80.375 -1.421875 72.703125 -1.421875 
Q 64.890625 -1.421875 60.34375 3.921875 
Q 55.8125 9.28125 55.8125 18.40625 
Q 55.8125 27.59375 60.375 32.9375 
Q 64.9375 38.28125 72.703125 38.28125 
M 22.3125 68.015625 
Q 18.109375 68.015625 15.6875 64.375 
Q 13.28125 60.75 13.28125 54.390625 
Q 13.28125 47.953125 15.671875 44.328125 
Q 18.0625 40.71875 22.3125 40.71875 
Q 26.5625 40.71875 28.96875 44.328125 
Q 31.390625 47.953125 31.390625 54.390625 
Q 31.390625 60.6875 28.953125 64.34375 
Q 26.515625 68.015625 22.3125 68.015625 
M 66.40625 74.21875 
L 74.21875 74.21875 
L 28.609375 -1.421875 
L 20.796875 -1.421875 
z
M 22.3125 74.21875 
Q 30.03125 74.21875 34.609375 68.875 
Q 39.203125 63.53125 39.203125 54.390625 
Q 39.203125 45.171875 34.640625 39.84375 
Q 30.078125 34.515625 22.3125 34.515625 
Q 14.546875 34.515625 10.03125 39.859375 
Q 5.515625 45.21875 5.515625 54.390625 
Q 5.515625 63.484375 10.046875 68.84375 
Q 14.59375 74.21875 22.3125 74.21875 
" id="BitstreamVeraSans-Roman-25"/>
      <path d="M 32.171875 -5.078125 
Q 28.375 -14.84375 24.75 -17.8125 
Q 21.140625 -20.796875 15.09375 -20.796875 
L 7.90625 -20.796875 
L 7.90625 -13.28125 
L 13.1875 -13.28125 
Q 16.890625 -13.28125 18.9375 -11.515625 
Q 21 -9.765625 23.484375 -3.21875 
L 25.09375 0.875 
L 2.984375 54.6875 
L 12.5 54.6875 
L 29.59375 11.921875 
L 46.6875 54.6875 
L 56.203125 54.6875 
z
" id="BitstreamVeraSans-Roman-79"/>
     </defs>
     <g transform="translate(14.7984375 195.403971071)rotate(-90.0)scale(0.1 -0.1)">
      <use xlink:href="#BitstreamVeraSans-Roman-54"/>
      <use x="60.818359375" xlink:href="#BitstreamVeraSans-Roman-6f"/>
      <use x="122.0" xlink:href="#BitstreamVeraSans-Roman-70"/>
      <use x="185.4765625" xlink:href="#BitstreamVeraSans-Roman-2d"/>
      <use x="221.560546875" xlink:href="#BitstreamVeraSans-Roman-31"/>
      <use x="285.18359375" xlink:href="#BitstreamVeraSans-Roman-20"/>
      <use x="316.970703125" xlink:href="#BitstreamVeraSans-Roman-61"/>
      <use x="378.25" xlink:href="#BitstreamVeraSans-Roman-63"/>
      <use x="433.23046875" xlink:href="#BitstreamVeraSans-Roman-63"/>
      <use x="488.2109375" xlink:href="#BitstreamVeraSans-Roman-75"/>
      <use x="551.58984375" xlink:href="#BitstreamVeraSans-Roman-72"/>
      <use x="592.703125" xlink:href="#BitstreamVeraSans-Roman-61"/>
      <use x="653.982421875" xlink:href="#BitstreamVeraSans-Roman-63"/>
      <use x="708.962890625" xlink:href="#BitstreamVeraSans-Roman-79"/>
      <use x="768.142578125" xlink:href="#BitstreamVeraSans-Roman-20"/>
      <use x="799.9296875" xlink:href="#BitstreamVeraSans-Roman-5b"/>
      <use x="838.943359375" xlink:href="#BitstreamVeraSans-Roman-25"/>
      <use x="933.962890625" xlink:href="#BitstreamVeraSans-Roman-5d"/>
     </g>
    </g>
   </g>
   <g id="text_19">
    <!-- BN-NIN -->
    <defs>
     <path d="M 64.59375 22.359375 
Q 64.59375 16.9375 62.546875 12.78125 
Q 60.5 8.640625 57.03125 5.953125 
Q 52.9375 2.734375 48.015625 1.359375 
Q 43.109375 0 35.546875 0 
L 9.765625 0 
L 9.765625 72.703125 
L 31.296875 72.703125 
Q 39.265625 72.703125 43.21875 72.109375 
Q 47.171875 71.53125 50.78125 69.671875 
Q 54.78125 67.578125 56.59375 64.28125 
Q 58.40625 60.984375 58.40625 56.390625 
Q 58.40625 51.21875 55.765625 47.578125 
Q 53.125 43.953125 48.734375 41.75 
L 48.734375 41.359375 
Q 56.109375 39.84375 60.34375 34.890625 
Q 64.59375 29.9375 64.59375 22.359375 
M 48.34375 55.125 
Q 48.34375 57.765625 47.453125 59.5625 
Q 46.578125 61.375 44.625 62.5 
Q 42.328125 63.8125 39.0625 64.125 
Q 35.796875 64.453125 30.953125 64.453125 
L 19.4375 64.453125 
L 19.4375 43.453125 
L 31.9375 43.453125 
Q 36.46875 43.453125 39.15625 43.921875 
Q 41.84375 44.390625 44.140625 45.84375 
Q 46.4375 47.3125 47.390625 49.625 
Q 48.34375 51.953125 48.34375 55.125 
M 54.546875 21.96875 
Q 54.546875 26.375 53.21875 28.953125 
Q 51.90625 31.546875 48.4375 33.34375 
Q 46.09375 34.578125 42.75 34.9375 
Q 39.40625 35.296875 34.625 35.296875 
L 19.4375 35.296875 
L 19.4375 8.25 
L 32.234375 8.25 
Q 38.578125 8.25 42.625 8.90625 
Q 46.6875 9.578125 49.265625 11.328125 
Q 52 13.234375 53.265625 15.671875 
Q 54.546875 18.109375 54.546875 21.96875 
" id="Verdana-42"/>
     <path d="M 65.234375 0 
L 53.265625 0 
L 18.796875 65.046875 
L 18.796875 0 
L 9.765625 0 
L 9.765625 72.703125 
L 24.75 72.703125 
L 56.203125 13.328125 
L 56.203125 72.703125 
L 65.234375 72.703125 
z
" id="Verdana-4e"/>
     <path d="M 35.40625 0 
L 6.6875 0 
L 6.6875 7.421875 
L 16.21875 7.421875 
L 16.21875 65.28125 
L 6.6875 65.28125 
L 6.6875 72.703125 
L 35.40625 72.703125 
L 35.40625 65.28125 
L 25.875 65.28125 
L 25.875 7.421875 
L 35.40625 7.421875 
z
" id="Verdana-49"/>
     <path d="M 37.9375 27.390625 
L 7.46875 27.390625 
L 7.46875 36.234375 
L 37.9375 36.234375 
z
" id="Verdana-2d"/>
    </defs>
    <g transform="translate(82.2661067408 179.296402259)scale(0.11 -0.11)">
     <use xlink:href="#Verdana-42"/>
     <use x="68.5546875" xlink:href="#Verdana-4e"/>
     <use x="143.359375" xlink:href="#Verdana-2d"/>
     <use x="188.76953125" xlink:href="#Verdana-4e"/>
     <use x="263.57421875" xlink:href="#Verdana-49"/>
     <use x="305.6640625" xlink:href="#Verdana-4e"/>
    </g>
   </g>
   <g id="text_20">
    <!-- Inception-v3 -->
    <defs>
     <path d="M 57.03125 27.9375 
Q 57.03125 21.296875 55.125 15.796875 
Q 53.21875 10.296875 49.75 6.5 
Q 46.53125 2.875 42.15625 0.890625 
Q 37.796875 -1.078125 32.90625 -1.078125 
Q 28.65625 -1.078125 25.21875 -0.140625 
Q 21.78125 0.78125 18.21875 2.734375 
L 18.21875 -20.125 
L 9.03125 -20.125 
L 9.03125 54.546875 
L 18.21875 54.546875 
L 18.21875 48.828125 
Q 21.875 51.90625 26.4375 53.984375 
Q 31 56.0625 36.1875 56.0625 
Q 46.046875 56.0625 51.53125 48.609375 
Q 57.03125 41.15625 57.03125 27.9375 
M 47.5625 27.6875 
Q 47.5625 37.546875 44.1875 42.421875 
Q 40.828125 47.3125 33.84375 47.3125 
Q 29.890625 47.3125 25.875 45.59375 
Q 21.875 43.890625 18.21875 41.109375 
L 18.21875 10.203125 
Q 22.125 8.453125 24.921875 7.8125 
Q 27.734375 7.171875 31.296875 7.171875 
Q 38.96875 7.171875 43.265625 12.34375 
Q 47.5625 17.53125 47.5625 27.6875 
" id="Verdana-70"/>
     <path d="M 50.6875 35.015625 
Q 53.03125 32.90625 54.546875 29.734375 
Q 56.0625 26.5625 56.0625 21.53125 
Q 56.0625 16.546875 54.25 12.390625 
Q 52.4375 8.25 49.171875 5.171875 
Q 45.515625 1.765625 40.546875 0.125 
Q 35.59375 -1.515625 29.6875 -1.515625 
Q 23.640625 -1.515625 17.78125 -0.0625 
Q 11.921875 1.375 8.15625 3.078125 
L 8.15625 13.28125 
L 8.890625 13.28125 
Q 13.03125 10.546875 18.640625 8.734375 
Q 24.265625 6.9375 29.5 6.9375 
Q 32.5625 6.9375 36.03125 7.953125 
Q 39.5 8.984375 41.65625 10.984375 
Q 43.890625 13.140625 44.984375 15.71875 
Q 46.09375 18.3125 46.09375 22.265625 
Q 46.09375 26.171875 44.84375 28.734375 
Q 43.609375 31.296875 41.40625 32.765625 
Q 39.203125 34.28125 36.078125 34.84375 
Q 32.953125 35.40625 29.34375 35.40625 
L 24.953125 35.40625 
L 24.953125 43.5 
L 28.375 43.5 
Q 35.796875 43.5 40.203125 46.59375 
Q 44.625 49.703125 44.625 55.671875 
Q 44.625 58.296875 43.5 60.265625 
Q 42.390625 62.25 40.375 63.53125 
Q 38.28125 64.796875 35.890625 65.28125 
Q 33.5 65.765625 30.46875 65.765625 
Q 25.828125 65.765625 20.59375 64.109375 
Q 15.375 62.453125 10.75 59.421875 
L 10.25 59.421875 
L 10.25 69.625 
Q 13.71875 71.34375 19.5 72.78125 
Q 25.296875 74.21875 30.71875 74.21875 
Q 36.03125 74.21875 40.078125 73.234375 
Q 44.140625 72.265625 47.40625 70.125 
Q 50.921875 67.78125 52.734375 64.453125 
Q 54.546875 61.140625 54.546875 56.6875 
Q 54.546875 50.640625 50.265625 46.125 
Q 46 41.609375 40.1875 40.4375 
L 40.1875 39.75 
Q 42.53125 39.359375 45.546875 38.109375 
Q 48.578125 36.859375 50.6875 35.015625 
" id="Verdana-33"/>
     <path d="M 37.359375 0.484375 
Q 34.765625 -0.203125 31.703125 -0.640625 
Q 28.65625 -1.078125 26.265625 -1.078125 
Q 17.921875 -1.078125 13.578125 3.40625 
Q 9.234375 7.90625 9.234375 17.828125 
L 9.234375 46.828125 
L 3.03125 46.828125 
L 3.03125 54.546875 
L 9.234375 54.546875 
L 9.234375 70.21875 
L 18.40625 70.21875 
L 18.40625 54.546875 
L 37.359375 54.546875 
L 37.359375 46.828125 
L 18.40625 46.828125 
L 18.40625 21.96875 
Q 18.40625 17.671875 18.59375 15.25 
Q 18.796875 12.84375 19.96875 10.75 
Q 21.046875 8.796875 22.921875 7.890625 
Q 24.8125 6.984375 28.65625 6.984375 
Q 30.90625 6.984375 33.34375 7.640625 
Q 35.796875 8.296875 36.859375 8.734375 
L 37.359375 8.734375 
z
" id="Verdana-74"/>
     <path d="M 18.890625 63.671875 
L 8.546875 63.671875 
L 8.546875 73.1875 
L 18.890625 73.1875 
z
M 18.3125 0 
L 9.125 0 
L 9.125 54.546875 
L 18.3125 54.546875 
z
" id="Verdana-69"/>
     <path d="M 49.359375 3.421875 
Q 44.78125 1.21875 40.65625 0 
Q 36.53125 -1.21875 31.890625 -1.21875 
Q 25.984375 -1.21875 21.046875 0.515625 
Q 16.109375 2.25 12.59375 5.765625 
Q 9.03125 9.28125 7.078125 14.640625 
Q 5.125 20.015625 5.125 27.203125 
Q 5.125 40.578125 12.46875 48.1875 
Q 19.828125 55.8125 31.890625 55.8125 
Q 36.578125 55.8125 41.09375 54.484375 
Q 45.609375 53.171875 49.359375 51.265625 
L 49.359375 41.0625 
L 48.875 41.0625 
Q 44.671875 44.34375 40.203125 46.09375 
Q 35.75 47.859375 31.5 47.859375 
Q 23.6875 47.859375 19.171875 42.609375 
Q 14.65625 37.359375 14.65625 27.203125 
Q 14.65625 17.328125 19.0625 12.03125 
Q 23.484375 6.734375 31.5 6.734375 
Q 34.28125 6.734375 37.15625 7.46875 
Q 40.046875 8.203125 42.328125 9.375 
Q 44.34375 10.40625 46.09375 11.546875 
Q 47.859375 12.703125 48.875 13.53125 
L 49.359375 13.53125 
z
" id="Verdana-63"/>
     <path d="M 54.640625 0 
L 45.453125 0 
L 45.453125 31.0625 
Q 45.453125 34.8125 45.015625 38.109375 
Q 44.578125 41.40625 43.40625 43.265625 
Q 42.1875 45.3125 39.890625 46.3125 
Q 37.59375 47.3125 33.9375 47.3125 
Q 30.171875 47.3125 26.0625 45.453125 
Q 21.96875 43.609375 18.21875 40.71875 
L 18.21875 0 
L 9.03125 0 
L 9.03125 54.546875 
L 18.21875 54.546875 
L 18.21875 48.484375 
Q 22.515625 52.046875 27.09375 54.046875 
Q 31.6875 56.0625 36.53125 56.0625 
Q 45.359375 56.0625 50 50.734375 
Q 54.640625 45.40625 54.640625 35.40625 
z
" id="Verdana-6e"/>
     <path d="M 54.6875 26.3125 
L 14.5 26.3125 
Q 14.5 21.296875 16.015625 17.546875 
Q 17.53125 13.8125 20.171875 11.421875 
Q 22.703125 9.078125 26.1875 7.90625 
Q 29.6875 6.734375 33.890625 6.734375 
Q 39.453125 6.734375 45.09375 8.953125 
Q 50.734375 11.1875 53.125 13.328125 
L 53.609375 13.328125 
L 53.609375 3.328125 
Q 48.96875 1.375 44.140625 0.046875 
Q 39.3125 -1.265625 33.984375 -1.265625 
Q 20.40625 -1.265625 12.78125 6.078125 
Q 5.171875 13.421875 5.171875 26.953125 
Q 5.171875 40.328125 12.46875 48.1875 
Q 19.78125 56.0625 31.6875 56.0625 
Q 42.71875 56.0625 48.703125 49.609375 
Q 54.6875 43.171875 54.6875 31.296875 
z
M 45.75 33.34375 
Q 45.703125 40.578125 42.109375 44.53125 
Q 38.53125 48.484375 31.203125 48.484375 
Q 23.828125 48.484375 19.453125 44.140625 
Q 15.09375 39.796875 14.5 33.34375 
z
" id="Verdana-65"/>
     <path d="M 55.515625 27.25 
Q 55.515625 13.921875 48.671875 6.203125 
Q 41.84375 -1.515625 30.375 -1.515625 
Q 18.796875 -1.515625 11.984375 6.203125 
Q 5.171875 13.921875 5.171875 27.25 
Q 5.171875 40.578125 11.984375 48.3125 
Q 18.796875 56.0625 30.375 56.0625 
Q 41.84375 56.0625 48.671875 48.3125 
Q 55.515625 40.578125 55.515625 27.25 
M 46.046875 27.25 
Q 46.046875 37.84375 41.890625 42.984375 
Q 37.75 48.140625 30.375 48.140625 
Q 22.90625 48.140625 18.78125 42.984375 
Q 14.65625 37.84375 14.65625 27.25 
Q 14.65625 17 18.796875 11.6875 
Q 22.953125 6.390625 30.375 6.390625 
Q 37.703125 6.390625 41.875 11.640625 
Q 46.046875 16.890625 46.046875 27.25 
" id="Verdana-6f"/>
     <path d="M 56.203125 54.546875 
L 34.125 0 
L 24.90625 0 
L 2.984375 54.546875 
L 12.9375 54.546875 
L 29.828125 11.140625 
L 46.578125 54.546875 
z
" id="Verdana-76"/>
    </defs>
    <g transform="translate(61.3360322848 40.5810910892)scale(0.11 -0.11)">
     <use xlink:href="#Verdana-49"/>
     <use x="42.08984375" xlink:href="#Verdana-6e"/>
     <use x="105.37109375" xlink:href="#Verdana-63"/>
     <use x="157.470703125" xlink:href="#Verdana-65"/>
     <use x="217.041015625" xlink:href="#Verdana-70"/>
     <use x="279.345703125" xlink:href="#Verdana-74"/>
     <use x="318.75" xlink:href="#Verdana-69"/>
     <use x="346.19140625" xlink:href="#Verdana-6f"/>
     <use x="406.884765625" xlink:href="#Verdana-6e"/>
     <use x="470.166015625" xlink:href="#Verdana-2d"/>
     <use x="515.544921875" xlink:href="#Verdana-76"/>
     <use x="574.724609375" xlink:href="#Verdana-33"/>
    </g>
   </g>
   <g id="text_21">
    <!-- Inception-v4 -->
    <defs>
     <path d="M 58.734375 20.453125 
L 47.953125 20.453125 
L 47.953125 0 
L 38.578125 0 
L 38.578125 20.453125 
L 3.765625 20.453125 
L 3.765625 31.6875 
L 38.96875 72.703125 
L 47.953125 72.703125 
L 47.953125 28.265625 
L 58.734375 28.265625 
z
M 38.578125 28.265625 
L 38.578125 61.078125 
L 10.40625 28.265625 
z
" id="Verdana-34"/>
    </defs>
    <g transform="translate(251.536257588 15.55828125)scale(0.11 -0.11)">
     <use xlink:href="#Verdana-49"/>
     <use x="42.08984375" xlink:href="#Verdana-6e"/>
     <use x="105.37109375" xlink:href="#Verdana-63"/>
     <use x="157.470703125" xlink:href="#Verdana-65"/>
     <use x="217.041015625" xlink:href="#Verdana-70"/>
     <use x="279.345703125" xlink:href="#Verdana-74"/>
     <use x="318.75" xlink:href="#Verdana-69"/>
     <use x="346.19140625" xlink:href="#Verdana-6f"/>
     <use x="406.884765625" xlink:href="#Verdana-6e"/>
     <use x="470.166015625" xlink:href="#Verdana-2d"/>
     <use x="515.544921875" xlink:href="#Verdana-76"/>
     <use x="574.724609375" xlink:href="#Verdana-34"/>
    </g>
   </g>
   <g id="text_22">
    <!-- BN-AlexNet -->
    <defs>
     <path d="M 67.09375 0 
L 56.78125 0 
L 49.65625 20.265625 
L 18.21875 20.265625 
L 11.078125 0 
L 1.265625 0 
L 27.734375 72.703125 
L 40.625 72.703125 
z
M 46.6875 28.5625 
L 33.9375 64.265625 
L 21.140625 28.5625 
z
" id="Verdana-41"/>
     <path d="M 56.25 0 
L 44.671875 0 
L 29.203125 20.953125 
L 13.625 0 
L 2.9375 0 
L 24.21875 27.203125 
L 3.125 54.546875 
L 14.703125 54.546875 
L 30.078125 33.9375 
L 45.515625 54.546875 
L 56.25 54.546875 
L 34.8125 27.6875 
z
" id="Verdana-78"/>
     <path d="M 18.3125 0 
L 9.125 0 
L 9.125 75.984375 
L 18.3125 75.984375 
z
" id="Verdana-6c"/>
    </defs>
    <g transform="translate(87.4402884622 231.78328125)scale(0.11 -0.11)">
     <use xlink:href="#Verdana-42"/>
     <use x="68.5546875" xlink:href="#Verdana-4e"/>
     <use x="143.359375" xlink:href="#Verdana-2d"/>
     <use x="188.73828125" xlink:href="#Verdana-41"/>
     <use x="257.09765625" xlink:href="#Verdana-6c"/>
     <use x="284.5390625" xlink:href="#Verdana-65"/>
     <use x="344.109375" xlink:href="#Verdana-78"/>
     <use x="403.2890625" xlink:href="#Verdana-4e"/>
     <use x="478.09375" xlink:href="#Verdana-65"/>
     <use x="537.6640625" xlink:href="#Verdana-74"/>
    </g>
   </g>
   <g id="text_23">
    <!-- AlexNet -->
    <g transform="translate(97.3253434979 249.133575125)scale(0.11 -0.11)">
     <use xlink:href="#Verdana-41"/>
     <use x="68.359375" xlink:href="#Verdana-6c"/>
     <use x="95.80078125" xlink:href="#Verdana-65"/>
     <use x="155.37109375" xlink:href="#Verdana-78"/>
     <use x="214.55078125" xlink:href="#Verdana-4e"/>
     <use x="289.35546875" xlink:href="#Verdana-65"/>
     <use x="348.92578125" xlink:href="#Verdana-74"/>
    </g>
   </g>
   <g id="text_24">
    <!-- VGG-16 -->
    <defs>
     <path d="M 70.40625 5.375 
Q 64.453125 2.640625 57.390625 0.609375 
Q 50.34375 -1.421875 43.75 -1.421875 
Q 35.25 -1.421875 28.171875 0.921875 
Q 21.09375 3.265625 16.109375 7.953125 
Q 11.078125 12.703125 8.34375 19.796875 
Q 5.609375 26.90625 5.609375 36.421875 
Q 5.609375 53.859375 15.796875 63.9375 
Q 25.984375 74.03125 43.75 74.03125 
Q 49.953125 74.03125 56.421875 72.53125 
Q 62.890625 71.046875 70.359375 67.484375 
L 70.359375 56 
L 69.484375 56 
Q 67.96875 57.171875 65.078125 59.078125 
Q 62.203125 60.984375 59.421875 62.25 
Q 56.0625 63.765625 51.78125 64.765625 
Q 47.515625 65.765625 42.09375 65.765625 
Q 29.890625 65.765625 22.78125 57.921875 
Q 15.671875 50.09375 15.671875 36.71875 
Q 15.671875 22.609375 23.09375 14.765625 
Q 30.515625 6.9375 43.3125 6.9375 
Q 48 6.9375 52.65625 7.859375 
Q 57.328125 8.796875 60.84375 10.25 
L 60.84375 28.078125 
L 41.359375 28.078125 
L 41.359375 36.578125 
L 70.40625 36.578125 
z
" id="Verdana-47"/>
     <path d="M 67.09375 72.703125 
L 40.625 0 
L 27.734375 0 
L 1.265625 72.703125 
L 11.625 72.703125 
L 34.421875 8.734375 
L 57.234375 72.703125 
z
" id="Verdana-56"/>
     <path d="M 58.15625 23.578125 
Q 58.15625 12.5 50.859375 5.484375 
Q 43.5625 -1.515625 32.953125 -1.515625 
Q 27.59375 -1.515625 23.1875 0.140625 
Q 18.796875 1.8125 15.4375 5.078125 
Q 11.234375 9.125 8.953125 15.8125 
Q 6.6875 22.515625 6.6875 31.9375 
Q 6.6875 41.609375 8.765625 49.078125 
Q 10.84375 56.546875 15.375 62.359375 
Q 19.671875 67.875 26.453125 70.96875 
Q 33.25 74.078125 42.28125 74.078125 
Q 45.171875 74.078125 47.125 73.828125 
Q 49.078125 73.578125 51.078125 72.953125 
L 51.078125 63.625 
L 50.59375 63.625 
Q 49.21875 64.359375 46.453125 65.015625 
Q 43.703125 65.671875 40.828125 65.671875 
Q 30.328125 65.671875 24.078125 59.109375 
Q 17.828125 52.546875 16.796875 41.359375 
Q 20.90625 43.84375 24.875 45.140625 
Q 28.859375 46.4375 34.078125 46.4375 
Q 38.71875 46.4375 42.25 45.578125 
Q 45.796875 44.734375 49.515625 42.140625 
Q 53.8125 39.15625 55.984375 34.609375 
Q 58.15625 30.078125 58.15625 23.578125 
M 48.25 23.1875 
Q 48.25 27.734375 46.90625 30.703125 
Q 45.5625 33.6875 42.484375 35.890625 
Q 40.234375 37.453125 37.5 37.9375 
Q 34.765625 38.421875 31.78125 38.421875 
Q 27.640625 38.421875 24.078125 37.4375 
Q 20.515625 36.46875 16.75 34.421875 
Q 16.65625 33.34375 16.59375 32.34375 
Q 16.546875 31.34375 16.546875 29.828125 
Q 16.546875 22.125 18.140625 17.65625 
Q 19.734375 13.1875 22.515625 10.59375 
Q 24.75 8.453125 27.359375 7.453125 
Q 29.984375 6.453125 33.0625 6.453125 
Q 40.140625 6.453125 44.1875 10.765625 
Q 48.25 15.09375 48.25 23.1875 
" id="Verdana-36"/>
     <path d="M 52.9375 0 
L 13.578125 0 
L 13.578125 7.421875 
L 28.71875 7.421875 
L 28.71875 56.15625 
L 13.578125 56.15625 
L 13.578125 62.796875 
Q 16.65625 62.796875 20.171875 63.296875 
Q 23.6875 63.8125 25.484375 64.796875 
Q 27.734375 66.015625 29.03125 67.890625 
Q 30.328125 69.78125 30.515625 72.953125 
L 38.09375 72.953125 
L 38.09375 7.421875 
L 52.9375 7.421875 
z
" id="Verdana-31"/>
    </defs>
    <g transform="translate(333.609590967 65.9526189995)scale(0.11 -0.11)">
     <use xlink:href="#Verdana-56"/>
     <use x="68.359375" xlink:href="#Verdana-47"/>
     <use x="145.8984375" xlink:href="#Verdana-47"/>
     <use x="223.4375" xlink:href="#Verdana-2d"/>
     <use x="268.84765625" xlink:href="#Verdana-31"/>
     <use x="332.421875" xlink:href="#Verdana-36"/>
    </g>
   </g>
   <g id="text_25">
    <!-- VGG-19 -->
    <defs>
     <path d="M 56.984375 40.71875 
Q 56.984375 31.203125 54.8125 23.4375 
Q 52.640625 15.671875 48.25 10.203125 
Q 43.796875 4.640625 37.109375 1.609375 
Q 30.421875 -1.421875 21.390625 -1.421875 
Q 18.84375 -1.421875 16.59375 -1.140625 
Q 14.359375 -0.875 12.59375 -0.296875 
L 12.59375 9.03125 
L 13.09375 9.03125 
Q 14.5 8.296875 17.078125 7.640625 
Q 19.671875 6.984375 22.859375 6.984375 
Q 33.640625 6.984375 39.765625 13.453125 
Q 45.90625 19.921875 46.875 31.296875 
Q 42.328125 28.5625 38.328125 27.390625 
Q 34.328125 26.21875 29.59375 26.21875 
Q 25.09375 26.21875 21.453125 27.09375 
Q 17.828125 27.984375 14.15625 30.515625 
Q 9.859375 33.5 7.6875 38.078125 
Q 5.515625 42.671875 5.515625 49.078125 
Q 5.515625 60.203125 12.84375 67.1875 
Q 20.171875 74.171875 30.71875 74.171875 
Q 35.984375 74.171875 40.46875 72.53125 
Q 44.96875 70.90625 48.34375 67.625 
Q 52.484375 63.578125 54.734375 57.203125 
Q 56.984375 50.828125 56.984375 40.71875 
M 47.125 42.828125 
Q 47.125 50.390625 45.5625 54.984375 
Q 44 59.578125 41.265625 62.109375 
Q 38.96875 64.3125 36.328125 65.265625 
Q 33.6875 66.21875 30.609375 66.21875 
Q 23.578125 66.21875 19.5 61.8125 
Q 15.4375 57.421875 15.4375 49.46875 
Q 15.4375 44.828125 16.75 41.890625 
Q 18.0625 38.96875 21.1875 36.765625 
Q 23.390625 35.25 26.015625 34.734375 
Q 28.65625 34.234375 31.890625 34.234375 
Q 35.6875 34.234375 39.59375 35.25 
Q 43.5 36.28125 46.921875 38.234375 
Q 46.96875 39.265625 47.046875 40.265625 
Q 47.125 41.265625 47.125 42.828125 
" id="Verdana-39"/>
    </defs>
    <g transform="translate(419.815533669 64.9064115715)scale(0.11 -0.11)">
     <use xlink:href="#Verdana-56"/>
     <use x="68.359375" xlink:href="#Verdana-47"/>
     <use x="145.8984375" xlink:href="#Verdana-47"/>
     <use x="223.4375" xlink:href="#Verdana-2d"/>
     <use x="268.84765625" xlink:href="#Verdana-31"/>
     <use x="332.421875" xlink:href="#Verdana-39"/>
    </g>
   </g>
   <g id="text_26">
    <!-- ResNet-18 -->
    <defs>
     <path d="M 69.921875 0 
L 57.375 0 
L 33.0625 28.90625 
L 19.4375 28.90625 
L 19.4375 0 
L 9.765625 0 
L 9.765625 72.703125 
L 30.125 72.703125 
Q 36.71875 72.703125 41.109375 71.84375 
Q 45.515625 71 49.03125 68.796875 
Q 52.984375 66.3125 55.203125 62.515625 
Q 57.421875 58.734375 57.421875 52.9375 
Q 57.421875 45.0625 53.46875 39.765625 
Q 49.515625 34.46875 42.578125 31.78125 
z
M 47.3125 52.25 
Q 47.3125 55.375 46.21875 57.78125 
Q 45.125 60.203125 42.578125 61.859375 
Q 40.484375 63.28125 37.59375 63.84375 
Q 34.71875 64.40625 30.8125 64.40625 
L 19.4375 64.40625 
L 19.4375 36.96875 
L 29.203125 36.96875 
Q 33.796875 36.96875 37.203125 37.765625 
Q 40.625 38.578125 43.015625 40.765625 
Q 45.21875 42.828125 46.265625 45.484375 
Q 47.3125 48.140625 47.3125 52.25 
" id="Verdana-52"/>
     <path d="M 48 15.71875 
Q 48 8.25 41.8125 3.46875 
Q 35.640625 -1.3125 24.953125 -1.3125 
Q 18.890625 -1.3125 13.84375 0.125 
Q 8.796875 1.5625 5.375 3.265625 
L 5.375 13.578125 
L 5.859375 13.578125 
Q 10.203125 10.296875 15.515625 8.375 
Q 20.84375 6.453125 25.734375 6.453125 
Q 31.78125 6.453125 35.203125 8.40625 
Q 38.625 10.359375 38.625 14.546875 
Q 38.625 17.78125 36.765625 19.4375 
Q 34.90625 21.09375 29.640625 22.265625 
Q 27.6875 22.703125 24.53125 23.28125 
Q 21.390625 23.875 18.796875 24.5625 
Q 11.625 26.46875 8.609375 30.15625 
Q 5.609375 33.84375 5.609375 39.203125 
Q 5.609375 42.578125 7 45.546875 
Q 8.40625 48.53125 11.234375 50.875 
Q 13.96875 53.171875 18.1875 54.515625 
Q 22.40625 55.859375 27.640625 55.859375 
Q 32.515625 55.859375 37.515625 54.65625 
Q 42.53125 53.46875 45.84375 51.765625 
L 45.84375 41.9375 
L 45.359375 41.9375 
Q 41.84375 44.53125 36.8125 46.3125 
Q 31.78125 48.09375 26.953125 48.09375 
Q 21.921875 48.09375 18.453125 46.15625 
Q 14.984375 44.234375 14.984375 40.4375 
Q 14.984375 37.0625 17.09375 35.359375 
Q 19.140625 33.640625 23.734375 32.5625 
Q 26.265625 31.984375 29.40625 31.390625 
Q 32.5625 30.8125 34.671875 30.328125 
Q 41.0625 28.859375 44.53125 25.296875 
Q 48 21.6875 48 15.71875 
" id="Verdana-73"/>
     <path d="M 57.625 20.265625 
Q 57.625 10.84375 50.265625 4.59375 
Q 42.921875 -1.65625 31.78125 -1.65625 
Q 19.96875 -1.65625 12.953125 4.4375 
Q 5.953125 10.546875 5.953125 20.0625 
Q 5.953125 26.125 9.46875 31.03125 
Q 12.984375 35.9375 19.390625 38.8125 
L 19.390625 39.109375 
Q 13.53125 42.234375 10.71875 45.9375 
Q 7.90625 49.65625 7.90625 55.21875 
Q 7.90625 63.421875 14.640625 68.890625 
Q 21.390625 74.359375 31.78125 74.359375 
Q 42.671875 74.359375 49.171875 69.140625 
Q 55.671875 63.921875 55.671875 55.859375 
Q 55.671875 50.921875 52.59375 46.15625 
Q 49.515625 41.40625 43.5625 38.71875 
L 43.5625 38.421875 
Q 50.390625 35.5 54 31.203125 
Q 57.625 26.90625 57.625 20.265625 
M 46.046875 55.765625 
Q 46.046875 60.984375 42.015625 64.078125 
Q 37.984375 67.1875 31.734375 67.1875 
Q 25.59375 67.1875 21.65625 64.25 
Q 17.71875 61.328125 17.71875 56.34375 
Q 17.71875 52.828125 19.703125 50.265625 
Q 21.6875 47.703125 25.6875 45.703125 
Q 27.484375 44.828125 30.875 43.40625 
Q 34.28125 42 37.5 41.0625 
Q 42.328125 44.28125 44.1875 47.75 
Q 46.046875 51.21875 46.046875 55.765625 
M 47.5625 19.34375 
Q 47.5625 23.828125 45.578125 26.53125 
Q 43.609375 29.25 37.84375 31.984375 
Q 35.546875 33.0625 32.8125 33.984375 
Q 30.078125 34.90625 25.53125 36.578125 
Q 21.140625 34.1875 18.484375 30.078125 
Q 15.828125 25.984375 15.828125 20.796875 
Q 15.828125 14.203125 20.359375 9.90625 
Q 24.90625 5.609375 31.890625 5.609375 
Q 39.015625 5.609375 43.28125 9.265625 
Q 47.5625 12.9375 47.5625 19.34375 
" id="Verdana-38"/>
    </defs>
    <g transform="translate(94.5590169282 115.213583107)scale(0.11 -0.11)">
     <use xlink:href="#Verdana-52"/>
     <use x="69.5" xlink:href="#Verdana-65"/>
     <use x="129.0703125" xlink:href="#Verdana-73"/>
     <use x="181.169921875" xlink:href="#Verdana-4e"/>
     <use x="255.974609375" xlink:href="#Verdana-65"/>
     <use x="315.544921875" xlink:href="#Verdana-74"/>
     <use x="354.91796875" xlink:href="#Verdana-2d"/>
     <use x="400.328125" xlink:href="#Verdana-31"/>
     <use x="463.90234375" xlink:href="#Verdana-38"/>
    </g>
   </g>
   <g id="text_27">
    <!-- ResNet-34 -->
    <g transform="translate(135.617671745 86.4417347145)scale(0.11 -0.11)">
     <use xlink:href="#Verdana-52"/>
     <use x="69.5" xlink:href="#Verdana-65"/>
     <use x="129.0703125" xlink:href="#Verdana-73"/>
     <use x="181.169921875" xlink:href="#Verdana-4e"/>
     <use x="255.974609375" xlink:href="#Verdana-65"/>
     <use x="315.544921875" xlink:href="#Verdana-74"/>
     <use x="354.91796875" xlink:href="#Verdana-2d"/>
     <use x="400.328125" xlink:href="#Verdana-33"/>
     <use x="463.90234375" xlink:href="#Verdana-34"/>
    </g>
   </g>
   <g id="text_28">
    <!-- ResNet-50 -->
    <defs>
     <path d="M 56.984375 36.375 
Q 56.984375 16.796875 50.859375 7.640625 
Q 44.734375 -1.515625 31.84375 -1.515625 
Q 18.75 -1.515625 12.71875 7.765625 
Q 6.6875 17.046875 6.6875 36.28125 
Q 6.6875 55.671875 12.78125 64.921875 
Q 18.890625 74.171875 31.84375 74.171875 
Q 44.921875 74.171875 50.953125 64.765625 
Q 56.984375 55.375 56.984375 36.375 
M 44.140625 14.203125 
Q 45.84375 18.171875 46.453125 23.515625 
Q 47.078125 28.859375 47.078125 36.375 
Q 47.078125 43.796875 46.453125 49.265625 
Q 45.84375 54.734375 44.09375 58.546875 
Q 42.390625 62.3125 39.421875 64.203125 
Q 36.46875 66.109375 31.84375 66.109375 
Q 27.25 66.109375 24.234375 64.203125 
Q 21.234375 62.3125 19.484375 58.453125 
Q 17.828125 54.828125 17.21875 49.015625 
Q 16.609375 43.21875 16.609375 36.28125 
Q 16.609375 28.65625 17.140625 23.53125 
Q 17.671875 18.40625 19.4375 14.359375 
Q 21.046875 10.546875 24 8.546875 
Q 26.953125 6.546875 31.84375 6.546875 
Q 36.421875 6.546875 39.453125 8.453125 
Q 42.484375 10.359375 44.140625 14.203125 
" id="Verdana-30"/>
     <path d="M 56.5 23.09375 
Q 56.5 18.015625 54.640625 13.375 
Q 52.78125 8.734375 49.5625 5.5625 
Q 46.046875 2.15625 41.1875 0.3125 
Q 36.328125 -1.515625 29.9375 -1.515625 
Q 23.96875 -1.515625 18.453125 -0.265625 
Q 12.9375 0.984375 9.125 2.734375 
L 9.125 13.03125 
L 9.8125 13.03125 
Q 13.8125 10.5 19.1875 8.71875 
Q 24.5625 6.9375 29.734375 6.9375 
Q 33.203125 6.9375 36.453125 7.90625 
Q 39.703125 8.890625 42.234375 11.328125 
Q 44.390625 13.421875 45.484375 16.34375 
Q 46.578125 19.28125 46.578125 23.140625 
Q 46.578125 26.90625 45.28125 29.484375 
Q 44 32.078125 41.703125 33.640625 
Q 39.15625 35.5 35.515625 36.25 
Q 31.890625 37.015625 27.390625 37.015625 
Q 23.09375 37.015625 19.109375 36.421875 
Q 15.140625 35.84375 12.25 35.25 
L 12.25 72.703125 
L 56 72.703125 
L 56 64.15625 
L 21.6875 64.15625 
L 21.6875 44.828125 
Q 23.78125 45.015625 25.96875 45.109375 
Q 28.171875 45.21875 29.78125 45.21875 
Q 35.6875 45.21875 40.125 44.21875 
Q 44.578125 43.21875 48.296875 40.671875 
Q 52.203125 37.984375 54.34375 33.734375 
Q 56.5 29.5 56.5 23.09375 
" id="Verdana-35"/>
    </defs>
    <g transform="translate(44.2612342973 62.7267240715)scale(0.11 -0.11)">
     <use xlink:href="#Verdana-52"/>
     <use x="69.5" xlink:href="#Verdana-65"/>
     <use x="129.0703125" xlink:href="#Verdana-73"/>
     <use x="181.169921875" xlink:href="#Verdana-4e"/>
     <use x="255.974609375" xlink:href="#Verdana-65"/>
     <use x="315.544921875" xlink:href="#Verdana-74"/>
     <use x="354.91796875" xlink:href="#Verdana-2d"/>
     <use x="400.328125" xlink:href="#Verdana-35"/>
     <use x="463.90234375" xlink:href="#Verdana-30"/>
    </g>
   </g>
   <g id="text_29">
    <!-- ResNet-101 -->
    <g transform="translate(167.778756977 75.1945392323)scale(0.11 -0.11)">
     <use xlink:href="#Verdana-52"/>
     <use x="69.5" xlink:href="#Verdana-65"/>
     <use x="129.0703125" xlink:href="#Verdana-73"/>
     <use x="181.169921875" xlink:href="#Verdana-4e"/>
     <use x="255.974609375" xlink:href="#Verdana-65"/>
     <use x="315.544921875" xlink:href="#Verdana-74"/>
     <use x="354.91796875" xlink:href="#Verdana-2d"/>
     <use x="400.328125" xlink:href="#Verdana-31"/>
     <use x="463.90234375" xlink:href="#Verdana-30"/>
     <use x="527.4765625" xlink:href="#Verdana-31"/>
    </g>
   </g>
   <g id="text_30">
    <!-- ResNet-152 -->
    <defs>
     <path d="M 57.078125 0 
L 7.859375 0 
L 7.859375 10.203125 
Q 12.984375 14.59375 18.140625 18.984375 
Q 23.296875 23.390625 27.734375 27.734375 
Q 37.109375 36.8125 40.578125 42.15625 
Q 44.046875 47.515625 44.046875 53.71875 
Q 44.046875 59.375 40.3125 62.5625 
Q 36.578125 65.765625 29.890625 65.765625 
Q 25.4375 65.765625 20.265625 64.203125 
Q 15.09375 62.640625 10.15625 59.421875 
L 9.671875 59.421875 
L 9.671875 69.671875 
Q 13.140625 71.390625 18.921875 72.796875 
Q 24.703125 74.21875 30.125 74.21875 
Q 41.3125 74.21875 47.65625 68.8125 
Q 54 63.421875 54 54.203125 
Q 54 50.046875 52.953125 46.453125 
Q 51.90625 42.875 49.859375 39.65625 
Q 47.953125 36.625 45.390625 33.6875 
Q 42.828125 30.765625 39.15625 27.203125 
Q 33.9375 22.078125 28.359375 17.265625 
Q 22.796875 12.453125 17.96875 8.34375 
L 57.078125 8.34375 
z
" id="Verdana-32"/>
    </defs>
    <g transform="translate(308.519892661 46.5970498753)scale(0.11 -0.11)">
     <use xlink:href="#Verdana-52"/>
     <use x="69.5" xlink:href="#Verdana-65"/>
     <use x="129.0703125" xlink:href="#Verdana-73"/>
     <use x="181.169921875" xlink:href="#Verdana-4e"/>
     <use x="255.974609375" xlink:href="#Verdana-65"/>
     <use x="315.544921875" xlink:href="#Verdana-74"/>
     <use x="354.91796875" xlink:href="#Verdana-2d"/>
     <use x="400.328125" xlink:href="#Verdana-31"/>
     <use x="463.90234375" xlink:href="#Verdana-35"/>
     <use x="527.4765625" xlink:href="#Verdana-32"/>
    </g>
   </g>
   <g id="text_31">
    <!-- GoogLeNet -->
    <defs>
     <path d="M 53.265625 6.203125 
Q 53.265625 -7.671875 46.96875 -14.15625 
Q 40.671875 -20.65625 27.59375 -20.65625 
Q 23.25 -20.65625 19.109375 -20.046875 
Q 14.984375 -19.4375 10.984375 -18.3125 
L 10.984375 -8.9375 
L 11.46875 -8.9375 
Q 13.71875 -9.8125 18.59375 -11.109375 
Q 23.484375 -12.40625 28.375 -12.40625 
Q 33.0625 -12.40625 36.125 -11.28125 
Q 39.203125 -10.15625 40.921875 -8.15625 
Q 42.625 -6.25 43.359375 -3.5625 
Q 44.09375 -0.875 44.09375 2.4375 
L 44.09375 7.421875 
Q 39.9375 4.109375 36.15625 2.46875 
Q 32.375 0.828125 26.515625 0.828125 
Q 16.75 0.828125 11.015625 7.875 
Q 5.28125 14.9375 5.28125 27.78125 
Q 5.28125 34.8125 7.25 39.90625 
Q 9.234375 45.015625 12.640625 48.734375 
Q 15.828125 52.203125 20.359375 54.125 
Q 24.90625 56.0625 29.390625 56.0625 
Q 34.125 56.0625 37.328125 55.109375 
Q 40.53125 54.15625 44.09375 52.203125 
L 44.671875 54.546875 
L 53.265625 54.546875 
z
M 44.09375 14.984375 
L 44.09375 44.734375 
Q 40.4375 46.390625 37.28125 47.09375 
Q 34.125 47.796875 31 47.796875 
Q 23.4375 47.796875 19.09375 42.71875 
Q 14.75 37.640625 14.75 27.984375 
Q 14.75 18.796875 17.96875 14.0625 
Q 21.1875 9.328125 28.65625 9.328125 
Q 32.671875 9.328125 36.6875 10.859375 
Q 40.71875 12.40625 44.09375 14.984375 
" id="Verdana-67"/>
     <path d="M 55.765625 0 
L 9.765625 0 
L 9.765625 72.703125 
L 19.4375 72.703125 
L 19.4375 8.59375 
L 55.765625 8.59375 
z
" id="Verdana-4c"/>
    </defs>
    <g transform="translate(86.5779249226 134.946732054)scale(0.11 -0.11)">
     <use xlink:href="#Verdana-47"/>
     <use x="77.5390625" xlink:href="#Verdana-6f"/>
     <use x="138.232421875" xlink:href="#Verdana-6f"/>
     <use x="198.92578125" xlink:href="#Verdana-67"/>
     <use x="261.23046875" xlink:href="#Verdana-4c"/>
     <use x="316.89453125" xlink:href="#Verdana-65"/>
     <use x="376.46484375" xlink:href="#Verdana-4e"/>
     <use x="451.26953125" xlink:href="#Verdana-65"/>
     <use x="510.83984375" xlink:href="#Verdana-74"/>
    </g>
   </g>
   <g id="text_32">
    <!-- ENet -->
    <defs>
     <path d="M 57.671875 0 
L 9.765625 0 
L 9.765625 72.703125 
L 57.671875 72.703125 
L 57.671875 64.109375 
L 19.4375 64.109375 
L 19.4375 44.1875 
L 57.671875 44.1875 
L 57.671875 35.59375 
L 19.4375 35.59375 
L 19.4375 8.59375 
L 57.671875 8.59375 
z
" id="Verdana-45"/>
    </defs>
    <g transform="translate(51.3968710318 146.339504642)scale(0.11 -0.11)">
     <use xlink:href="#Verdana-45"/>
     <use x="63.232421875" xlink:href="#Verdana-4e"/>
     <use x="138.037109375" xlink:href="#Verdana-65"/>
     <use x="197.607421875" xlink:href="#Verdana-74"/>
    </g>
   </g>
   <g id="text_33">
    <!-- 5M -->
    <defs>
     <path d="M 74.515625 0 
L 64.84375 0 
L 64.84375 62.640625 
L 44.625 20.015625 
L 38.875 20.015625 
L 18.796875 62.640625 
L 18.796875 0 
L 9.765625 0 
L 9.765625 72.703125 
L 22.953125 72.703125 
L 42.328125 32.234375 
L 61.078125 72.703125 
L 74.515625 72.703125 
z
" id="Verdana-4d"/>
    </defs>
    <g transform="translate(183.639488636 202.139517946)scale(0.11 -0.11)">
     <use xlink:href="#Verdana-35"/>
     <use x="63.57421875" xlink:href="#Verdana-4d"/>
    </g>
   </g>
   <g id="text_34">
    <!-- 35M -->
    <g transform="translate(234.366761364 202.139517946)scale(0.11 -0.11)">
     <use xlink:href="#Verdana-33"/>
     <use x="63.57421875" xlink:href="#Verdana-35"/>
     <use x="127.1484375" xlink:href="#Verdana-4d"/>
    </g>
   </g>
   <g id="text_35">
    <!-- 65M -->
    <g transform="translate(285.094034091 202.139517946)scale(0.11 -0.11)">
     <use xlink:href="#Verdana-36"/>
     <use x="63.57421875" xlink:href="#Verdana-35"/>
     <use x="127.1484375" xlink:href="#Verdana-4d"/>
    </g>
   </g>
   <g id="text_36">
    <!-- 95M -->
    <g transform="translate(335.821306818 202.139517946)scale(0.11 -0.11)">
     <use xlink:href="#Verdana-39"/>
     <use x="63.57421875" xlink:href="#Verdana-35"/>
     <use x="127.1484375" xlink:href="#Verdana-4d"/>
    </g>
   </g>
   <g id="text_37">
    <!-- 125M -->
    <g transform="translate(386.548579545 202.139517946)scale(0.11 -0.11)">
     <use xlink:href="#Verdana-31"/>
     <use x="63.57421875" xlink:href="#Verdana-32"/>
     <use x="127.1484375" xlink:href="#Verdana-35"/>
     <use x="190.72265625" xlink:href="#Verdana-4d"/>
    </g>
   </g>
   <g id="text_38">
    <!-- 155M -->
    <g transform="translate(437.275852273 202.139517946)scale(0.11 -0.11)">
     <use xlink:href="#Verdana-31"/>
     <use x="63.57421875" xlink:href="#Verdana-35"/>
     <use x="127.1484375" xlink:href="#Verdana-35"/>
     <use x="190.72265625" xlink:href="#Verdana-4d"/>
    </g>
   </g>
  </g>
 </g>
 <defs>
  <clipPath id="p01317cf840">
   <rect height="279.0" width="446.4" x="41.603125" y="7.25475232124"/>
  </clipPath>
 </defs>
</svg>
